<?xml version="1.0" standalone="no"?> 
<!DOCTYPE svg PUBLIC "-//W3C//DTD SVG 1.1//EN" "http://www.w3.org/Graphics/SVG/1.1/DTD/svg11.dtd" >
<svg xmlns="http://www.w3.org/2000/svg">
<defs>
  <font id="mtdicon" horiz-adv-x="1024">
    <font-face font-family="mtdicon"
      units-per-em="1024" ascent="896"
      descent="128" />
    <missing-glyph horiz-adv-x="0" />
    <glyph glyph-name="mtdicon-flame"
      unicode="&#xE000;"
      horiz-adv-x="1024" d=" M512 -42.667C323.477 -42.667 170.667 110.144 170.667 298.667C170.667 377.813 201.365 498.283 250.901 586.709C329.045 569.344 269.653 324.757 405.333 362.667C540.267 422.89 384.085 529.429 384.085 640C384.085 765.867 497.451 810.667 533.333 810.667C560.405 704.533 636.437 652.587 709.931 598.123C827.349 501.867 853.333 413.376 853.333 298.667C853.333 110.144 700.523 -42.667 512 -42.667zM234.667 298.667C234.667 145.493 358.827 21.333 512 21.333S789.333 145.493 789.333 298.667C789.333 408.875 761.749 472.533 670.549 547.627L662.208 553.813L661.141 554.603C572.053 620.352 523.243 666.24 493.525 730.688C469.547 712.598 448.085 680.341 448.085 640C448.085 621.355 456.427 599.339 478.677 557.483C513.493 491.989 520.789 475.669 523.776 440.043C528.768 380.16 495.573 332.864 431.403 304.213L427.093 302.293L422.549 301.013C361.429 283.947 309.013 302.187 277.163 349.845C265.152 367.851 257.387 386.112 250.859 410.624C240.576 370.027 234.667 330.603 234.667 298.667z" />
    <glyph glyph-name="mtdicon-flame-fill"
      unicode="&#xE001;"
      horiz-adv-x="1024" d=" M512 -42.667C323.477 -42.667 170.667 110.144 170.667 298.667C170.667 377.813 201.365 498.283 250.901 586.709C329.045 569.344 226.091 324.48 405.333 362.667C573.653 430.528 384.085 529.429 384.085 640C384.085 765.867 497.451 810.667 533.333 810.667C560.405 704.533 636.437 652.587 709.931 598.123C827.349 501.867 853.333 413.376 853.333 298.667C853.333 110.144 700.523 -42.667 512 -42.667z" />
    <glyph glyph-name="mtdicon-badge"
      unicode="&#xE002;"
      horiz-adv-x="1024" d=" M682.667 170.581A361.067 361.067 0 0 0 512 128C450.304 128 392.192 143.403 341.333 170.581V27.371L512 89.45L682.667 27.37V170.58zM746.667 214.144V-48.768A10.667 10.667 0 0 0 732.373 -58.795L512 21.333L291.627 -58.795A10.667 10.667 0 0 0 277.333 -48.768V214.144C199.04 280.661 149.333 379.861 149.333 490.667C149.333 690.965 311.701 853.333 512 853.333S874.667 690.965 874.667 490.667C874.667 379.861 824.96 280.661 746.667 214.144zM213.333 490.667C213.333 422.613 236.075 358.208 277.312 305.92A297.963 297.963 0 0 1 512 192C604.736 192 690.347 234.453 746.688 305.92A297.067 297.067 0 0 1 810.667 490.667C810.667 655.616 676.949 789.333 512 789.333S213.333 655.616 213.333 490.667zM512 298.667A192 192 0 1 0 512 682.667A192 192 0 0 0 512 298.667zM512 362.667A128 128 0 1 1 512 618.667A128 128 0 0 1 512 362.667z" />
    <glyph glyph-name="mtdicon-jigsaw-fill"
      unicode="&#xE003;"
      horiz-adv-x="1024" d=" M810.667 192V21.333A21.332999999999995 21.332999999999995 0 0 0 789.333 0H192A21.332999999999995 21.332999999999995 0 0 0 170.667 21.333V192H234.667A106.667 106.667 0 0 1 234.667 405.333H170.667V618.667A21.332999999999995 21.332999999999995 0 0 0 192 640H384V682.667A106.667 106.667 0 0 0 597.333 682.667V640H789.333A21.332999999999995 21.332999999999995 0 0 0 810.667 618.667V405.333H853.333A106.667 106.667 0 0 0 853.333 192H810.667z" />
    <glyph glyph-name="mtdicon-bolt"
      unicode="&#xE004;"
      horiz-adv-x="1024" d=" M564.736 490.667H821.12A10.667 10.667 0 0 0 829.419 473.301L381.76 -81.13A10.667 10.667 0 0 0 363.179 -71.594L459.264 277.334H202.88A10.667 10.667 0 0 0 194.581 294.7L642.24 849.13A10.667 10.667 0 0 0 660.821 839.594L564.736 490.666zM709.526 426.667H480.726L531.115 609.621L314.453 341.333H543.253L492.864 158.38L709.547 426.668z" />
    <glyph glyph-name="mtdicon-bolt-fill"
      unicode="&#xE005;"
      horiz-adv-x="1024" d=" M564.736 490.667H821.12A10.667 10.667 0 0 0 829.419 473.301L381.76 -81.13A10.667 10.667 0 0 0 363.179 -71.594L459.264 277.334H202.88A10.667 10.667 0 0 0 194.581 294.7L642.24 849.13A10.667 10.667 0 0 0 660.821 839.594L564.736 490.666z" />
    <glyph glyph-name="mtdicon-jigsaw"
      unicode="&#xE006;"
      horiz-adv-x="1024" d=" M810.667 192V21.333A21.332999999999995 21.332999999999995 0 0 0 789.333 0H192A21.332999999999995 21.332999999999995 0 0 0 170.667 21.333V256H256A64 64 0 0 1 256 384H170.667V618.667A21.332999999999995 21.332999999999995 0 0 0 192 640H362.667V661.333A128 128 0 1 0 618.667 661.333V640H789.333A21.332999999999995 21.332999999999995 0 0 0 810.667 618.667V448H832A128 128 0 1 0 832 192H810.667zM746.667 64V256H832A64 64 0 0 1 832 384H746.667V576H554.667V661.333A64 64 0 0 1 426.667 661.333V576H234.667V448H256A128 128 0 1 0 256 192H234.667V64H746.667z" />
    <glyph glyph-name="mtdicon-trophy-fill"
      unicode="&#xE007;"
      horiz-adv-x="1024" d=" M544 151.04V21.333H704V-42.667H320V21.333H480V151.04C336.96 166.272 224.085 282.475 214.059 427.008A138.667 138.667 0 0 0 85.333 565.333V682.667A21.332999999999995 21.332999999999995 0 0 0 106.667 704H213.333V746.667A21.332999999999995 21.332999999999995 0 0 0 234.667 768H789.333A21.332999999999995 21.332999999999995 0 0 0 810.667 746.667V704H917.333A21.332999999999995 21.332999999999995 0 0 0 938.667 682.667V565.333A138.667 138.667 0 0 0 809.94 427.008C799.915 282.475 687.061 166.272 544 151.018zM810.667 500.95C831.403 504.704 847.403 513.728 858.667 528.043C869.973 542.336 875.307 558.123 874.667 575.36V640H810.667V500.97zM213.333 500.95V640H149.333V575.36C148.693 558.123 154.027 542.357 165.333 528.043C176.597 513.749 192.597 504.725 213.333 500.949z" />
    <glyph glyph-name="mtdicon-trophy"
      unicode="&#xE008;"
      horiz-adv-x="1024" d=" M544 151.04V21.333H704V-42.667H320V21.333H480V151.04C336.96 166.272 224.085 282.475 214.059 427.008A138.667 138.667 0 0 0 85.333 565.333V682.667A21.332999999999995 21.332999999999995 0 0 0 106.667 704H213.333V746.667A21.332999999999995 21.332999999999995 0 0 0 234.667 768H789.333A21.332999999999995 21.332999999999995 0 0 0 810.667 746.667V704H917.333A21.332999999999995 21.332999999999995 0 0 0 938.667 682.667V565.333A138.667 138.667 0 0 0 809.94 427.008C799.915 282.475 687.061 166.272 544 151.018zM810.667 500.95C831.403 504.704 847.403 513.728 858.667 528.043C869.973 542.336 875.307 558.123 874.667 575.36V640H810.667V500.97zM746.667 448V704H277.333V448C277.333 318.4 382.4 213.333 512 213.333S746.667 318.4 746.667 448zM213.333 500.97V640H149.333V575.36C148.693 558.123 154.027 542.357 165.333 528.043C176.597 513.749 192.597 504.725 213.333 500.949z" />
    <glyph glyph-name="mtdicon-square-stack-up"
      unicode="&#xE009;"
      horiz-adv-x="1024" d=" M136.725 234.667L499.008 45.845C507.115 41.6 516.885 41.6 524.992 45.845L887.275 234.667L933.909 210.347A8.597 8.597 0 0 0 933.909 194.987L524.992 -18.155C516.885 -22.4 507.115 -22.4 499.008 -18.155L90.091 194.965A8.597 8.597 0 0 0 90.091 210.368L136.747 234.667zM136.725 426.667L499.008 237.845C507.115 233.6 516.885 233.6 524.992 237.845L887.275 426.667L933.909 402.347A8.597 8.597 0 0 0 933.909 386.987L524.992 173.845C516.885 169.6 507.115 169.6 499.008 173.845L90.091 386.965A8.597 8.597 0 0 0 90.091 402.368L136.747 426.667zM933.909 578.987L524.992 365.845C516.885 361.6 507.115 361.6 499.008 365.845L90.091 578.965A8.597 8.597 0 0 0 90.091 594.368L499.008 807.488C507.115 811.733 516.885 811.733 524.992 807.488L933.909 594.368A8.597 8.597 0 0 0 933.909 578.965zM512 742.08L213.803 586.667L512 431.232L810.197 586.667L512 742.1z" />
    <glyph glyph-name="mtdicon-slider-settings"
      unicode="&#xE00A;"
      horiz-adv-x="1024" d=" M234.667 682.667V725.333A21.332999999999995 21.332999999999995 0 0 0 256 746.667H405.333A21.332999999999995 21.332999999999995 0 0 0 426.667 725.333V682.667H938.667V618.667H426.667V576A21.332999999999995 21.332999999999995 0 0 0 405.333 554.667H256A21.332999999999995 21.332999999999995 0 0 0 234.667 576V618.667H85.333V682.667H234.667zM234.667 149.333V192A21.332999999999995 21.332999999999995 0 0 0 256 213.333H405.333A21.332999999999995 21.332999999999995 0 0 0 426.667 192V149.333H938.667V85.333H426.667V42.667A21.332999999999995 21.332999999999995 0 0 0 405.333 21.333H256A21.332999999999995 21.332999999999995 0 0 0 234.667 42.667V85.333H85.333V149.333H234.667zM597.333 416V458.667A21.332999999999995 21.332999999999995 0 0 0 618.667 480H768A21.332999999999995 21.332999999999995 0 0 0 789.333 458.667V416H938.667V352H789.333V309.333A21.332999999999995 21.332999999999995 0 0 0 768 288H618.667A21.332999999999995 21.332999999999995 0 0 0 597.333 309.333V352H85.333V416H597.333zM298.667 682.667V618.667H362.667V682.667H298.667zM661.333 416V352H725.333V416H661.333zM298.667 149.333V85.333H362.667V149.333H298.667z" />
    <glyph glyph-name="mtdicon-shield-fill"
      unicode="&#xE00B;"
      horiz-adv-x="1024" d=" M172.245 711.467L502.912 809.344A32 32 0 0 0 521.088 809.344L851.755 711.467A32 32 0 0 0 874.667 680.789V281.9A170.667 170.667 0 0 0 797.14 138.9L523.648 -39.232A21.332999999999995 21.332999999999995 0 0 0 500.352 -39.232L226.859 138.901A170.667 170.667 0 0 0 149.333 281.9V680.79A32 32 0 0 0 172.245 711.468z" />
    <glyph glyph-name="mtdicon-shield-success"
      unicode="&#xE00C;"
      horiz-adv-x="1024" d=" M502.912 809.344A31.759999999999998 31.759999999999998 0 0 0 521.088 809.344L851.755 711.467A32 32 0 0 0 874.667 680.811V281.813A170.517 170.517 0 0 0 797.184 138.923L523.648 -39.211A21.332999999999995 21.332999999999995 0 0 0 500.352 -39.211L226.816 138.923A170.517 170.517 0 0 0 149.333 281.813V680.811A32 32 0 0 0 172.245 711.467L502.912 809.344zM213.333 281.814A106.544 106.544 0 0 1 261.76 192.512L512 29.525L762.24 192.512A106.56 106.56 0 0 1 810.667 281.813V656.94L512 745.344L213.333 656.939V281.813zM459.2 343.68L670.4 554.688L730.73 494.4L459.2 223.061L293.27 388.885L353.6 449.173L459.2 343.637V343.659z" />
    <glyph glyph-name="mtdicon-table-fill"
      unicode="&#xE00D;"
      horiz-adv-x="1024" d=" M106.667 704H480V533.333H85.333V682.667A21.332999999999995 21.332999999999995 0 0 0 106.667 704zM544 704H917.333A21.332999999999995 21.332999999999995 0 0 0 938.667 682.667V533.333H544V704zM85.333 469.333H480V298.667H85.333V469.333zM544 469.333H938.667V298.667H544V469.333zM85.333 234.667H480V64H106.667A21.332999999999995 21.332999999999995 0 0 0 85.333 85.333V234.667zM544 234.667H938.667V85.333A21.332999999999995 21.332999999999995 0 0 0 917.333 64H544V234.667z" />
    <glyph glyph-name="mtdicon-phone"
      unicode="&#xE00E;"
      horiz-adv-x="1024" d=" M264.683 21.333H755.349V746.667H264.683V21.333zM222.016 810.667H798.016A21.332999999999995 21.332999999999995 0 0 0 819.349 789.333V-21.333A21.332999999999995 21.332999999999995 0 0 0 798.016 -42.667H222.016A21.332999999999995 21.332999999999995 0 0 0 200.683 -21.333V789.333A21.332999999999995 21.332999999999995 0 0 0 222.016 810.667zM405.526 149.333H618.859V85.333H405.525V149.333z" />
    <glyph glyph-name="mtdicon-square-stack-up-fill"
      unicode="&#xE00F;"
      horiz-adv-x="1024" d=" M933.91 578.987L524.991 365.845C516.884 361.6 507.114 361.6 499.007 365.845L90.091 578.965A8.597 8.597 0 0 0 90.091 594.368L499.008 807.488C507.115 811.733 516.885 811.733 524.992 807.488L933.909 594.368A8.597 8.597 0 0 0 933.909 578.965zM136.725 234.667L499.008 45.845C507.115 41.6 516.885 41.6 524.992 45.845L887.275 234.667L933.909 210.347A8.597 8.597 0 0 0 933.909 194.987L524.992 -18.155C516.885 -22.4 507.115 -22.4 499.008 -18.155L90.091 194.965A8.597 8.597 0 0 0 90.091 210.368L136.747 234.667zM136.725 426.667L499.008 237.845C507.115 233.6 516.885 233.6 524.992 237.845L887.275 426.667L933.909 402.347A8.597 8.597 0 0 0 933.909 386.987L524.992 173.845C516.885 169.6 507.115 169.6 499.008 173.845L90.091 386.965A8.597 8.597 0 0 0 90.091 402.368L136.747 426.667z" />
    <glyph glyph-name="mtdicon-original"
      unicode="&#xE010;"
      horiz-adv-x="1024" d=" M149.333 768H874.667A21.332999999999995 21.332999999999995 0 0 0 896 746.667V21.333A21.332999999999995 21.332999999999995 0 0 0 874.667 0H149.333A21.332999999999995 21.332999999999995 0 0 0 128 21.333V746.667A21.332999999999995 21.332999999999995 0 0 0 149.333 768zM192 704V64H832V704H192zM384 576V192H320V576H384zM725.333 576V192H661.333V576H725.333zM490.667 480H554.667V416H490.667V480zM490.667 352H554.667V288H490.667V352z" />
    <glyph glyph-name="mtdicon-monitor"
      unicode="&#xE011;"
      horiz-adv-x="1024" d=" M106.667 746.667H917.333A21.332999999999995 21.332999999999995 0 0 0 938.667 725.333V128A21.332999999999995 21.332999999999995 0 0 0 917.333 106.667H106.667A21.332999999999995 21.332999999999995 0 0 0 85.333 128V725.333A21.332999999999995 21.332999999999995 0 0 0 106.667 746.667zM149.333 682.667V170.667H874.667V682.667H149.333zM320 42.667H704V-21.333H320V42.667z" />
    <glyph glyph-name="mtdicon-table"
      unicode="&#xE012;"
      horiz-adv-x="1024" d=" M106.667 704H917.333A21.332999999999995 21.332999999999995 0 0 0 938.667 682.667V85.333A21.332999999999995 21.332999999999995 0 0 0 917.333 64H106.667A21.332999999999995 21.332999999999995 0 0 0 85.333 85.333V682.667A21.332999999999995 21.332999999999995 0 0 0 106.667 704zM149.333 512H480V640H149.333V512zM544 512H874.667V640H544V512zM149.333 320H480V448H149.333V320zM544 320H874.667V448H544V320zM149.333 128H480V256H149.333V128zM544 128H874.667V256H544V128z" />
    <glyph glyph-name="mtdicon-qrcode"
      unicode="&#xE013;"
      horiz-adv-x="1024" d=" M149.333 768H448A21.332999999999995 21.332999999999995 0 0 0 469.333 746.667V448A21.332999999999995 21.332999999999995 0 0 0 448 426.667H149.333A21.332999999999995 21.332999999999995 0 0 0 128 448V746.667A21.332999999999995 21.332999999999995 0 0 0 149.333 768zM192 704V490.667H405.333V704H192zM576 768H874.667A21.332999999999995 21.332999999999995 0 0 0 896 746.667V448A21.332999999999995 21.332999999999995 0 0 0 874.667 426.667H576A21.332999999999995 21.332999999999995 0 0 0 554.667 448V746.667A21.332999999999995 21.332999999999995 0 0 0 576 768zM618.667 704V490.667H832V704H618.667zM149.333 341.333H448A21.332999999999995 21.332999999999995 0 0 0 469.333 320V21.333A21.332999999999995 21.332999999999995 0 0 0 448 0H149.333A21.332999999999995 21.332999999999995 0 0 0 128 21.333V320A21.332999999999995 21.332999999999995 0 0 0 149.333 341.333zM192 277.333V64H405.333V277.333H192zM256 640H341.333V554.667H256V640zM256 213.333H341.333V128H256V213.333zM682.667 640H768V554.667H682.667V640zM576 341.333H640V256H554.667V320A21.332999999999995 21.332999999999995 0 0 0 576 341.333zM810.667 341.333H874.667A21.332999999999995 21.332999999999995 0 0 0 896 320V256H810.667V341.333zM554.667 85.333H640V0H576A21.332999999999995 21.332999999999995 0 0 0 554.667 21.333V85.333zM682.667 213.333H768V128H682.667V213.333zM810.667 85.333H896V21.333A21.332999999999995 21.332999999999995 0 0 0 874.667 0H810.667V85.333z" />
    <glyph glyph-name="mtdicon-floor"
      unicode="&#xE014;"
      horiz-adv-x="1024" d=" M170.667 64V746.667A21.332999999999995 21.332999999999995 0 0 0 192 768H576A21.332999999999995 21.332999999999995 0 0 0 597.333 746.667V469.333H832A21.332999999999995 21.332999999999995 0 0 0 853.333 448V64H917.333V0H106.667V64H170.667zM234.667 64H533.333V704H234.667V64zM597.333 64H789.333V405.333H597.333V64zM320 618.667H448V554.667H320V618.667zM320 469.333H448V405.333H320V469.333zM320 320H448V256H320V320z" />
    <glyph glyph-name="mtdicon-shield-success-fill"
      unicode="&#xE015;"
      horiz-adv-x="1024" d=" M172.245 711.467L502.912 809.344A32 32 0 0 0 521.088 809.344L851.755 711.467A32 32 0 0 0 874.667 680.789V281.9A170.667 170.667 0 0 0 797.14 138.9L523.648 -39.232A21.332999999999995 21.332999999999995 0 0 0 500.352 -39.232L226.859 138.901A170.667 170.667 0 0 0 149.333 281.9V680.79A32 32 0 0 0 172.245 711.468zM458.347 349.888L358.997 449.173L298.667 388.885L458.347 229.312L744.96 515.712L684.63 576L458.346 349.888z" />
    <glyph glyph-name="mtdicon-id-card"
      unicode="&#xE016;"
      horiz-adv-x="1024" d=" M106.667 725.333H917.333A21.332999999999995 21.332999999999995 0 0 0 938.667 704V64A21.332999999999995 21.332999999999995 0 0 0 917.333 42.667H106.667A21.332999999999995 21.332999999999995 0 0 0 85.333 64V704A21.332999999999995 21.332999999999995 0 0 0 106.667 725.333zM149.333 661.333V106.667H874.667V661.333H149.333zM234.667 554.667H448V490.667H234.667V554.667zM234.667 405.333H448V341.333H234.667V405.333zM234.667 554.667H298.667V341.333H234.667V554.667zM384 554.667H448V341.333H384V554.667zM533.333 277.333H789.333V213.333H533.333V277.333zM618.667 416H789.333V352H618.667V416zM704 554.667H789.333V490.667H704V554.667z" />
    <glyph glyph-name="mtdicon-shield"
      unicode="&#xE017;"
      horiz-adv-x="1024" d=" M172.245 711.467L502.912 809.344A32 32 0 0 0 521.088 809.344L851.755 711.467A32 32 0 0 0 874.667 680.789V281.9A170.667 170.667 0 0 0 797.14 138.9L523.648 -39.232A21.332999999999995 21.332999999999995 0 0 0 500.352 -39.232L226.859 138.901A170.667 170.667 0 0 0 149.333 281.9V680.79A32 32 0 0 0 172.245 711.468zM213.333 656.896V281.899A106.667 106.667 0 0 1 261.781 192.512L512 29.611L762.219 192.555A106.667 106.667 0 0 1 810.667 281.92V656.875L512 745.3L213.333 656.895z" />
    <glyph glyph-name="mtdicon-paperplane-fill"
      unicode="&#xE018;"
      horiz-adv-x="1024" d=" M443.477 270.933L822.101 688.064A4.267 4.267 0 0 1 816.064 694.101L398.997 315.52L77.184 472.235A10.667 10.667 0 0 0 78.059 491.797L930.347 816.128A10.667 10.667 0 0 0 944.107 802.347L619.797 -49.92A10.667 10.667 0 0 0 600.235 -50.773L443.477 270.933z" />
    <glyph glyph-name="mtdicon-keyboard"
      unicode="&#xE019;"
      horiz-adv-x="1024" d=" M149.333 661.333V106.667H874.667V661.333H149.333zM938.667 704V64A21.332999999999995 21.332999999999995 0 0 0 917.333 42.667H106.667A21.332999999999995 21.332999999999995 0 0 0 85.333 64V704A21.332999999999995 21.332999999999995 0 0 0 106.667 725.333H917.333A21.332999999999995 21.332999999999995 0 0 0 938.667 704zM320 266.667H704V202.667H320V266.667zM256 565.333H320V501.333H256V565.333zM256 416H320V352H256V416zM405.333 565.333H469.333V501.333H405.333V565.333zM405.333 416H469.333V352H405.333V416zM554.667 565.333H618.667V501.333H554.667V565.333zM554.667 416H618.667V352H554.667V416zM704 565.333H768V501.333H704V565.333zM704 416H768V352H704V416z" />
    <glyph glyph-name="mtdicon-globe"
      unicode="&#xE01A;"
      horiz-adv-x="1024" d=" M326.059 490.667H165.269A362.603 362.603 0 0 1 149.333 384C149.333 346.88 154.901 311.04 165.269 277.333H326.059A929.067 929.067 0 0 0 320 384C320 420.821 322.09 456.576 326.059 490.667zM389.632 490.667A992.853 992.853 0 0 1 384 384C384 346.88 385.963 311.04 389.632 277.333H634.368C638.038 311.04 640 346.88 640 384C640 421.12 638.037 456.96 634.368 490.667H389.632zM697.942 490.667A929.067 929.067 0 0 0 704 384A929.067 929.067 0 0 0 697.941 277.333H858.731C869.099 311.04 874.667 346.88 874.667 384C874.667 421.12 869.099 456.96 858.731 490.667H697.94zM398.783 39.36C371.498 83.69 349.673 143.68 335.978 213.333H191.915A363.73299999999995 363.73299999999995 0 0 1 398.784 39.36zM625.215 39.36A363.73299999999995 363.73299999999995 0 0 1 832.085 213.333H688C674.304 143.659 652.48 83.691 625.195 39.36zM624.959 213.333H399.04C420.587 99.072 463.083 21.333 512 21.333S603.413 99.072 624.96 213.333zM398.784 728.64A363.73299999999995 363.73299999999995 0 0 1 191.914 554.667H335.98C349.676 624.341 371.5 684.309 398.785 728.64zM625.216 728.64C652.501 684.31 674.326 624.32 688.021 554.667H832.085A363.73299999999995 363.73299999999995 0 0 1 625.216 728.64zM624.96 554.667C603.413 668.928 560.917 746.667 512 746.667S420.587 668.928 399.04 554.667H624.96zM512 -42.667C276.352 -42.667 85.333 148.352 85.333 384S276.352 810.667 512 810.667S938.667 619.648 938.667 384S747.648 -42.667 512 -42.667z" />
    <glyph glyph-name="mtdicon-paperplane"
      unicode="&#xE01B;"
      horiz-adv-x="1024" d=" M429.013 300.608L428.459 301.163L77.205 472.256A10.667 10.667 0 0 0 78.08 491.797L930.347 816.128A10.667 10.667 0 0 0 944.107 802.347L619.797 -49.92A10.667 10.667 0 0 0 600.235 -50.773L429.013 300.587zM768.981 686.229L216.021 475.819L446.357 363.605L768.981 686.251zM814.208 640.96L491.605 318.315L603.82 88L814.25 640.96z" />
    <glyph glyph-name="mtdicon-log-out"
      unicode="&#xE01C;"
      horiz-adv-x="1024" d=" M813.696 82.304A425.32300000000004 425.32300000000004 0 0 0 512 -42.666C276.352 -42.667 85.333 148.351 85.333 384S276.352 810.667 512 810.667A425.32300000000004 425.32300000000004 0 0 0 813.696 685.696L768.448 640.448A361.536 361.536 0 0 1 512 746.667C311.701 746.667 149.333 584.299 149.333 384S311.701 21.333 512 21.333C612.139 21.333 702.805 61.931 768.427 127.573L813.696 82.304zM733.248 352H298.667V416H733.248V512L946.581 384L733.248 256V352z" />
    <glyph glyph-name="mtdicon-education-fill"
      unicode="&#xE01D;"
      horiz-adv-x="1024" d=" M149.333 452.437V128H85.333V487.104L17.323 523.947A10.667 10.667 0 0 0 17.323 542.72L496.768 802.41A32 32 0 0 0 527.232 802.41L1006.677 542.72A10.667 10.667 0 0 0 1006.677 523.947L527.232 264.256A32 32 0 0 0 496.768 264.256L149.333 452.437zM213.333 353.771L496.768 200.256A32 32 0 0 1 527.232 200.256L810.667 353.771V138.176A32 32 0 0 0 793.899 110.016L527.232 -34.411A32 32 0 0 0 496.768 -34.411L230.101 110.016A32 32 0 0 0 213.333 138.176V353.771z" />
    <glyph glyph-name="mtdicon-laser-pen"
      unicode="&#xE01E;"
      horiz-adv-x="1024" d=" M480 320A96 96 0 1 0 566.635 374.613L909.696 31.573L864.448 -13.696L521.408 329.344A95.616 95.616 0 0 0 480 320zM448 810.667H512V661.333H448V810.667zM448 170.667H512V21.333H448V170.667zM874.667 448V384H725.333V448H874.667zM234.667 448V384H85.333V448H234.667zM736.427 717.696L781.696 672.448L676.096 566.848L630.869 612.096L736.448 717.696zM283.925 265.173L329.152 219.925L223.573 114.325L178.325 159.573L283.925 265.173zM329.152 612.117L283.925 566.891L178.325 672.469L223.573 717.717L329.173 612.117z" />
    <glyph glyph-name="mtdicon-funnel-chart"
      unicode="&#xE01F;"
      horiz-adv-x="1024" d=" M275.413 298.667L193.92 490.667H830.08L748.587 298.667H275.413zM733.397 426.667H290.603L317.76 362.667H706.24L733.397 426.667zM648.277 62.165A32 32 0 0 0 618.816 42.667H405.184A32 32 0 0 0 375.744 62.165L302.528 234.667H721.429L648.256 62.165zM399.211 170.667L426.368 106.667H597.632L624.789 170.667H399.211zM857.216 554.667H166.784L91.627 731.84A10.667 10.667 0 0 0 101.44 746.667H922.56A10.667 10.667 0 0 0 932.373 731.84L857.216 554.667zM814.848 618.667L841.984 682.667H182.016L209.152 618.667H814.848z" />
    <glyph glyph-name="mtdicon-nosign"
      unicode="&#xE020;"
      horiz-adv-x="1024" d=" M233.92 616.832A361.216 361.216 0 0 1 149.333 384C149.333 183.701 311.701 21.333 512 21.333C600.619 21.333 681.813 53.12 744.832 105.92L233.92 616.832zM279.168 662.059L790.08 151.168A361.216 361.216 0 0 1 874.667 384C874.667 584.299 712.299 746.667 512 746.667C423.381 746.667 342.187 714.88 279.168 662.08zM512 -42.667C276.352 -42.667 85.333 148.352 85.333 384S276.352 810.667 512 810.667S938.667 619.648 938.667 384S747.648 -42.667 512 -42.667z" />
    <glyph glyph-name="mtdicon-education"
      unicode="&#xE021;"
      horiz-adv-x="1024" d=" M85.333 487.104L17.323 523.947A10.667 10.667 0 0 0 17.323 542.72L496.768 802.41A32 32 0 0 0 527.232 802.41L1006.677 542.72A10.667 10.667 0 0 0 1006.677 523.947L810.667 417.77V138.175A32 32 0 0 0 793.899 110.015L527.232 -34.411A32 32 0 0 0 496.768 -34.411L230.101 110.016A32 32 0 0 0 213.333 138.176V417.771L149.333 452.437V128H85.333V487.104zM746.667 383.104L527.232 264.256A32 32 0 0 0 496.768 264.256L277.333 383.104V157.227L512 30.123L746.667 157.227V383.104zM512 737.877L134.379 533.333L512 328.79L889.621 533.334L512 737.877z" />
    <glyph glyph-name="mtdicon-floor-fill"
      unicode="&#xE022;"
      horiz-adv-x="1024" d=" M597.333 64H661.333V469.333H832A21.332999999999995 21.332999999999995 0 0 0 853.333 448V64H917.333V0H106.667V64H170.667V746.667A21.332999999999995 21.332999999999995 0 0 0 192 768H576A21.332999999999995 21.332999999999995 0 0 0 597.333 746.667V64zM320 618.667V554.667H448V618.667H320zM320 469.333V405.333H448V469.333H320zM320 320V256H448V320H320z" />
    <glyph glyph-name="mtdicon-adaptation-screen"
      unicode="&#xE023;"
      horiz-adv-x="1024" d=" M192 64H832V704H192V64zM149.333 768H874.667A21.332999999999995 21.332999999999995 0 0 0 896 746.667V21.333A21.332999999999995 21.332999999999995 0 0 0 874.667 0H149.333A21.332999999999995 21.332999999999995 0 0 0 128 21.333V746.667A21.332999999999995 21.332999999999995 0 0 0 149.333 768zM277.333 149.333V618.667H746.667V149.333H277.333zM341.333 213.333H682.667V554.667H341.333V213.333z" />
    <glyph glyph-name="mtdicon-funnel-chart-fill"
      unicode="&#xE024;"
      horiz-adv-x="1024" d=" M748.587 298.667H275.413L193.92 490.667H830.08L748.587 298.667zM721.451 234.667L648.277 62.165A32 32 0 0 0 618.816 42.667H405.184A32 32 0 0 0 375.744 62.165L302.528 234.667H721.429zM857.216 554.667H166.784L91.627 731.84A10.667 10.667 0 0 0 101.44 746.667H922.56A10.667 10.667 0 0 0 932.373 731.84L857.216 554.667z" />
    <glyph glyph-name="mtdicon-demonstration"
      unicode="&#xE025;"
      horiz-adv-x="1024" d=" M480 213.333H149.333V746.667H85.333V810.667H938.667V746.667H874.667V213.333H544V21.333H682.667V-42.667H341.333V21.333H480V213.333zM213.333 277.333H810.667V746.667H213.333V277.333zM416 640L629.333 512L416 384V640z" />
    <glyph glyph-name="mtdicon-bar-chart"
      unicode="&#xE026;"
      horiz-adv-x="1024" d=" M192 -21.333H128V789.333H192V-21.333zM576 714.667V565.333A21.332999999999995 21.332999999999995 0 0 0 554.667 544H256V736H554.667A21.332999999999995 21.332999999999995 0 0 0 576 714.667zM512 672H320V608H512V672zM896 458.667V309.333A21.332999999999995 21.332999999999995 0 0 0 874.667 288H256V480H874.667A21.332999999999995 21.332999999999995 0 0 0 896 458.667zM832 416H320V352H832V416zM725.333 202.667V53.333A21.332999999999995 21.332999999999995 0 0 0 704 32H256V224H704A21.332999999999995 21.332999999999995 0 0 0 725.333 202.667zM661.333 160H320V96H661.333V160z" />
    <glyph glyph-name="mtdicon-bell-slash-fill"
      unicode="&#xE027;"
      horiz-adv-x="1024" d=" M314.475 672.021A297.43000000000006 297.43000000000006 0 0 0 480 744.96V810.667H544V744.96C693.91 729.024 810.667 602.155 810.667 448V221.824L836.117 150.379L919.296 67.221L874.048 21.952L149.952 746.048L195.222 791.275L314.474 672.02zM698.816 106.667H165.909A10.667 10.667 0 0 0 156.651 122.624L213.333 221.824V448C213.333 490.432 222.187 530.795 238.144 567.36L698.816 106.667zM469.333 810.667H554.667V725.333H469.333V810.667zM384 -41.301V44.032H640V-41.301H384z" />
    <glyph glyph-name="mtdicon-alphabetically"
      unicode="&#xE028;"
      horiz-adv-x="1024" d=" M778.667 157.653H853.333L746.667 -21.333L640 157.653H714.667V610.347H640L746.667 789.333L853.333 610.347H778.667V157.653zM240.064 405.333H170.667L317.995 768H407.339L554.667 405.333H485.269L441.941 512H283.392L240.085 405.333zM309.397 576H415.936L362.666 707.136L309.398 576zM192 72.277L460.16 277.333H194.901V341.333H554.667V269.056L286.507 64H554.667V0H192V72.277z" />
    <glyph glyph-name="mtdicon-bar-chart-fill"
      unicode="&#xE029;"
      horiz-adv-x="1024" d=" M192 -21.333H128V789.333H192V-21.333zM554.667 714.667V565.333A21.332999999999995 21.332999999999995 0 0 0 533.333 544H256V736H533.333A21.332999999999995 21.332999999999995 0 0 0 554.667 714.667zM896 458.667V309.333A21.332999999999995 21.332999999999995 0 0 0 874.667 288H256V480H874.667A21.332999999999995 21.332999999999995 0 0 0 896 458.667zM725.333 202.667V53.333A21.332999999999995 21.332999999999995 0 0 0 704 32H256V224H704A21.332999999999995 21.332999999999995 0 0 0 725.333 202.667z" />
    <glyph glyph-name="mtdicon-annex"
      unicode="&#xE02A;"
      horiz-adv-x="1024" d=" M330.987 293.483A64 64 0 0 1 421.483 202.987L753.365 534.827A128 128 0 0 1 572.331 715.84L225.387 368.917A192 192 0 1 1 496.917 97.387L798.613 399.083L843.861 353.835L542.165 52.139C442.197 -47.851 280.107 -47.851 180.139 52.139C80.149 152.107 80.149 314.197 180.139 414.165L527.083 761.131A192 192 0 1 0 798.613 489.6L466.752 157.717A128 128 0 1 0 285.717 338.752L572.331 625.365L617.6 580.096L330.987 293.483z" />
    <glyph glyph-name="mtdicon-quote"
      unicode="&#xE02B;"
      horiz-adv-x="1024" d=" M234.667 682.667V405.333H170.667V746.667H426.667V682.667H234.667zM789.333 85.333V362.667H853.333V21.333H597.333V85.333H789.333z" />
    <glyph glyph-name="mtdicon-like-fill"
      unicode="&#xE02C;"
      horiz-adv-x="1024" d=" M512 -21.333L450.133 35.456C230.4 236.331 85.333 368.811 85.333 531.413C85.333 663.893 188.587 768 320 768C394.24 768 465.493 733.163 512 678.101C558.507 733.141 629.76 768 704 768C835.413 768 938.667 663.893 938.667 531.413C938.667 368.811 793.6 236.331 573.867 35.008L512 -21.333" />
    <glyph glyph-name="mtdicon-like"
      unicode="&#xE02D;"
      horiz-adv-x="1024" d=" M512 -21.333L450.133 35.456C230.4 236.331 85.333 368.811 85.333 531.413C85.333 663.893 188.587 768 320 768C394.24 768 465.493 733.163 512 678.101C558.507 733.141 629.76 768 704 768C835.413 768 938.667 663.893 938.667 531.413C938.667 368.811 793.6 236.331 573.867 35.008L512 -21.333zM530.005 80.213C735.701 268.203 800.085 334.891 843.541 416.235C864.597 455.659 874.667 492.48 874.667 530.155C874.667 628.459 799.573 704 704 704C650.325 704 596.693 678.656 561.43 636.992L512 578.602L462.57 636.992C427.286 678.656 373.676 704 320 704C224.427 704 149.333 628.459 149.333 530.133C149.333 492.309 159.488 455.339 180.736 415.744C224.341 334.507 289.152 267.477 494.037 80.597L512.171 64L530.005 80.213z" />
    <glyph glyph-name="mtdicon-expand"
      unicode="&#xE02E;"
      horiz-adv-x="1024" d=" M128 768H896V704H128V768zM128 64H896V0H128V64zM448 533.333H896V469.333H448V533.333zM448 298.667H896V234.667H448V298.667zM128 512L341.333 384L128 256V512z" />
    <glyph glyph-name="mtdicon-collapse"
      unicode="&#xE02F;"
      horiz-adv-x="1024" d=" M128 768H896V704H128V768zM128 64H896V0H128V64zM448 533.333H896V469.333H448V533.333zM448 298.667H896V234.667H448V298.667zM341.333 512V256L128 384L341.333 512z" />
    <glyph glyph-name="mtdicon-compress"
      unicode="&#xE030;"
      horiz-adv-x="1024" d=" M234.667 746.667V21.333H789.333V592.15L634.816 746.667H234.666zM192 810.667H661.333L853.333 618.667V-21.333A21.332999999999995 21.332999999999995 0 0 0 832 -42.667H192A21.332999999999995 21.332999999999995 0 0 0 170.667 -21.333V789.333A21.332999999999995 21.332999999999995 0 0 0 192 810.667zM426.667 640H512V554.667H426.667V640zM512 554.667H597.333V469.333H512V554.667zM426.667 469.333H512V384H426.667V469.333zM512 384H597.333V298.667H512V384zM426.667 298.667H512V213.333H426.667V298.667zM512 213.333H597.333V128H512V213.333z" />
    <glyph glyph-name="mtdicon-checkmini"
      unicode="&#xE031;"
      horiz-adv-x="1024" d=" M429.696 248.853L756.843 576L802.091 530.752L444.779 173.419A21.332999999999995 21.332999999999995 0 0 0 414.613 173.419L213.333 374.74L258.581 419.988L429.696 248.895z" />
    <glyph glyph-name="mtdicon-questionmini"
      unicode="&#xE032;"
      horiz-adv-x="1024" d=" M483.115 256V341.035L553.899 411.819V411.904L572.331 430.336A85.333 85.333 0 1 1 427.477 478.933H363.136A149.333 149.333 0 1 0 617.686 385.152L617.706 385.131L547.093 314.517V256H483.093zM547.115 194.987V130.987H483.115V194.987H547.115z" />
    <glyph glyph-name="mtdicon-closemini"
      unicode="&#xE033;"
      horiz-adv-x="1024" d=" M557.248 384L730.731 210.517L685.483 165.269L512 338.752L338.517 165.269L293.269 210.517L466.752 384L293.269 557.483L338.517 602.731L512 429.248L685.483 602.731L730.731 557.483z" />
    <glyph glyph-name="mtdicon-warningmini"
      unicode="&#xE034;"
      horiz-adv-x="1024" d=" M490.667 192H554.667V128H490.667V192zM490.667 640H554.667V256H490.667V640z" />
    <glyph glyph-name="mtdicon-handle"
      unicode="&#xE035;"
      horiz-adv-x="1024" d=" M384 576A64 64 0 1 0 384 704A64 64 0 0 0 384 576zM384 320A64 64 0 1 0 384 448A64 64 0 0 0 384 320zM384 64A64 64 0 1 0 384 192A64 64 0 0 0 384 64zM640 576A64 64 0 1 0 640 704A64 64 0 0 0 640 576zM640 320A64 64 0 1 0 640 448A64 64 0 0 0 640 320zM640 64A64 64 0 1 0 640 192A64 64 0 0 0 640 64z" />
    <glyph glyph-name="mtdicon-point"
      unicode="&#xE036;"
      horiz-adv-x="1024" d=" M384 384A128 128 0 1 1 640 384A128 128 0 1 1 384 384z" />
    <glyph glyph-name="mtdicon-check-thick"
      unicode="&#xE037;"
      horiz-adv-x="1024" d=" M420.864 299.307L782.891 661.333L873.408 570.816L435.947 133.355A21.332999999999995 21.332999999999995 0 0 0 405.781 133.355L149.333 389.803L239.851 480.32L420.864 299.285z" />
    <glyph glyph-name="mtdicon-down-thick"
      unicode="&#xE038;"
      horiz-adv-x="1024" d=" M509.525 317.525L721.58 529.58L766.806 484.31L524.609 242.092A21.332999999999995 21.332999999999995 0 0 0 494.444 242.092L252.224 484.309L297.494 529.557L509.525 317.504z" />
    <glyph glyph-name="mtdicon-up-thick"
      unicode="&#xE039;"
      horiz-adv-x="1024" d=" M509.525 447.893L297.472 235.84L252.245 281.11L494.421 523.307A21.332999999999995 21.332999999999995 0 0 0 524.587 523.307L766.805 281.109L721.536 235.84L509.483 447.893z" />
    <glyph glyph-name="mtdicon-right-thick"
      unicode="&#xE03A;"
      horiz-adv-x="1024" d=" M574.72 382.72L362.667 594.73L407.915 640L650.133 397.781A21.332999999999995 21.332999999999995 0 0 0 650.133 367.616L407.893 125.44L362.667 170.667L574.72 382.72z" />
    <glyph glyph-name="mtdicon-left-thick"
      unicode="&#xE03B;"
      horiz-adv-x="1024" d=" M444.33 382.72L656.384 170.667L611.114 125.419L368.917 367.616A21.332999999999995 21.332999999999995 0 0 0 368.917 397.781L611.115 640L656.384 594.752L444.331 382.699z" />
    <glyph glyph-name="mtdicon-newfolde"
      unicode="&#xE03C;"
      horiz-adv-x="1024" d=" M170.667 725.333V106.667H853.333V618.667H496.64A32 32 0 0 0 471.637 630.677L395.904 725.333H170.667zM128 789.333H411.307A32 32 0 0 0 436.267 777.323L512 682.667H896A21.332999999999995 21.332999999999995 0 0 0 917.333 661.333V64A21.332999999999995 21.332999999999995 0 0 0 896 42.667H128A21.332999999999995 21.332999999999995 0 0 0 106.667 64V768A21.332999999999995 21.332999999999995 0 0 0 128 789.333zM544 394.667H661.333V330.667H544V213.333H480V330.667H362.667V394.667H480V512H544V394.667z" />
    <glyph glyph-name="mtdicon-history"
      unicode="&#xE03D;"
      horiz-adv-x="1024" d=" M143.467 230.443L202.56 255.061C253.419 130.475 375.787 42.667 518.699 42.667C707.2 42.667 860.032 195.477 860.032 384S707.2 725.333 518.699 725.333C427.221 725.333 344.171 689.365 282.88 630.784L348.032 565.654L106.667 505.3L166.997 746.666L237.611 676.052A403.99 403.99 0 0 0 518.699 789.332C742.549 789.332 924.032 607.85 924.032 383.999S742.549 -21.333 518.699 -21.333C349.184 -21.333 203.968 82.731 143.445 230.443zM113.365 384H177.365H113.365zM533.333 375.915L673.28 235.968L628.053 190.698L478.72 340.033A32 32 0 0 0 469.333 362.668V576H533.333V375.915z" />
    <glyph glyph-name="mtdicon-unlock-fill"
      unicode="&#xE03E;"
      horiz-adv-x="1024" d=" M767.787 576H682.347A170.667 170.667 0 0 1 341.333 565.333V469.333H832A21.332999999999995 21.332999999999995 0 0 0 853.333 448V-21.184A21.332999999999995 21.332999999999995 0 0 0 832 -42.517L191.957 -41.344A21.332999999999995 21.332999999999995 0 0 0 170.667 -20.011V448A21.332999999999995 21.332999999999995 0 0 0 192 469.333H256V565.333C256 706.709 370.624 821.333 512 821.333C649.813 821.333 762.197 712.448 767.787 576zM480 341.333V85.333H544V341.333H480z" />
    <glyph glyph-name="mtdicon-originalsize"
      unicode="&#xE03F;"
      horiz-adv-x="1024" d=" M149.333 768H874.667A21.332999999999995 21.332999999999995 0 0 0 896 746.667V21.333A21.332999999999995 21.332999999999995 0 0 0 874.667 0H149.333A21.332999999999995 21.332999999999995 0 0 0 128 21.333V746.667A21.332999999999995 21.332999999999995 0 0 0 149.333 768zM192 704V64H832V704H192zM384 576V192H320V576H384zM725.333 576V192H661.333V576H725.333zM490.667 480H554.667V416H490.667V480zM490.667 352H554.667V288H490.667V352z" />
    <glyph glyph-name="mtdicon-redo"
      unicode="&#xE040;"
      horiz-adv-x="1024" d=" M682.667 565.333H362.667A192 192 0 0 1 362.667 181.333H490.667V117.333H362.667C221.291 117.333 106.667 231.957 106.667 373.333S221.291 629.333 362.667 629.333H682.667V725.333L896 597.333L682.667 469.333V565.333z" />
    <glyph glyph-name="mtdicon-unlock"
      unicode="&#xE041;"
      horiz-adv-x="1024" d=" M266.667 469.333V576C266.667 711.488 376.512 821.333 512 821.333S757.333 711.488 757.333 576H693.333A181.333 181.333 0 1 1 330.667 576V469.333H832A21.332999999999995 21.332999999999995 0 0 0 853.333 448V-21.184A21.332999999999995 21.332999999999995 0 0 0 832 -42.517H831.957L191.957 -41.344A21.332999999999995 21.332999999999995 0 0 0 170.667 -20.011V448A21.332999999999995 21.332999999999995 0 0 0 192 469.333H266.667zM234.667 21.547L789.333 21.333V405.333H234.667V21.547zM480 320H544V106.667H480V320z" />
    <glyph glyph-name="mtdicon-template"
      unicode="&#xE042;"
      horiz-adv-x="1024" d=" M170.667 789.333H853.333A21.332999999999995 21.332999999999995 0 0 0 874.667 768V448H149.333V768A21.332999999999995 21.332999999999995 0 0 0 170.667 789.333zM213.333 725.333V512H810.667V725.333H213.333zM149.333 384H490.667V-21.333H170.667A21.332999999999995 21.332999999999995 0 0 0 149.333 0V384zM213.333 320V42.667H426.667V320H213.333zM554.667 384H874.667V320H554.667V384zM554.667 213.333H874.667V149.333H554.667V213.333zM554.667 42.667H874.667V-21.333H554.667V42.667z" />
    <glyph glyph-name="mtdicon-printing"
      unicode="&#xE043;"
      horiz-adv-x="1024" d=" M192 597.333V810.667H832V597.333H917.333A21.332999999999995 21.332999999999995 0 0 0 938.667 576V170.667A21.332999999999995 21.332999999999995 0 0 0 917.333 149.333H832V-42.667H192V149.333H106.667A21.332999999999995 21.332999999999995 0 0 0 85.333 170.667V576A21.332999999999995 21.332999999999995 0 0 0 106.667 597.333H192zM256 597.333H768V746.667H256V597.333zM874.667 533.333H149.333V213.333H192V298.667H832V213.333H874.667V533.333zM256 234.667V21.333H768V234.667H256zM256 448H384V384H256V448z" />
    <glyph glyph-name="mtdicon-edit"
      unicode="&#xE044;"
      horiz-adv-x="1024" d=" M170.667 0V85.333H853.333V0H170.667zM787.499 614.25L353.3 180.033A32 32 0 0 0 330.666 170.668H192A21.332999999999995 21.332999999999995 0 0 0 170.667 192V330.667C170.667 339.157 174.037 347.307 180.053 353.28L614.23 787.52A21.332999999999995 21.332999999999995 0 0 0 644.396 787.52L787.478 644.437A21.332999999999995 21.332999999999995 0 0 0 787.478 614.272z" />
    <glyph glyph-name="mtdicon-top"
      unicode="&#xE045;"
      horiz-adv-x="1024" d=" M480 525.973L257.365 302.101L211.968 347.221L496.875 633.728A21.332999999999995 21.332999999999995 0 0 0 527.04 633.792L527.125 633.707L812.032 347.22L766.635 302.1L544 525.973V-38.016H480V525.974zM128 746.667V810.667H896V746.667H128z" />
    <glyph glyph-name="mtdicon-radio-unchecked"
      unicode="&#xE046;"
      horiz-adv-x="1024" d=" M512 -42.667C276.352 -42.667 85.333 148.352 85.333 384S276.352 810.667 512 810.667S938.667 619.648 938.667 384S747.648 -42.667 512 -42.667zM512 21.333C712.299 21.333 874.667 183.701 874.667 384S712.299 746.667 512 746.667S149.333 584.299 149.333 384S311.701 21.333 512 21.333z" />
    <glyph glyph-name="mtdicon-more"
      unicode="&#xE047;"
      horiz-adv-x="1024" d=" M576 661.333A64 64 0 1 0 448 661.333A64 64 0 0 0 576 661.333zM576 384A64 64 0 1 0 448 384A64 64 0 0 0 576 384zM576 106.667A64 64 0 1 0 448 106.667A64 64 0 0 0 576 106.667z" />
    <glyph glyph-name="mtdicon-micrify"
      unicode="&#xE048;"
      horiz-adv-x="1024" d=" M576 501.333V437.333H320V501.333H576zM695.936 267.008L927.723 35.221L882.475 -10.048L650.709 221.717A318.6770000000001 318.6770000000001 0 0 0 448 149.333C271.275 149.333 128 292.608 128 469.333C128 646.059 271.275 789.333 448 789.333S768 646.059 768 469.333C768 392.576 740.97 322.133 695.936 267.008zM448 213.333C589.376 213.333 704 327.957 704 469.333S589.376 725.333 448 725.333S192 610.709 192 469.333S306.624 213.333 448 213.333z" />
    <glyph glyph-name="mtdicon-search"
      unicode="&#xE049;"
      horiz-adv-x="1024" d=" M695.936 267.008L927.723 35.221L882.475 -10.048L650.709 221.717A318.6770000000001 318.6770000000001 0 0 0 448 149.333C271.275 149.333 128 292.608 128 469.333C128 646.059 271.275 789.333 448 789.333S768 646.059 768 469.333C768 392.576 740.97 322.133 695.936 267.008zM448 213.333C589.376 213.333 704 327.957 704 469.333S589.376 725.333 448 725.333S192 610.709 192 469.333S306.624 213.333 448 213.333z" />
    <glyph glyph-name="mtdicon-enlarge"
      unicode="&#xE04A;"
      horiz-adv-x="1024" d=" M480 501.333H576V437.333H480V341.333H416V437.333H320V501.333H416V597.333H480V501.333zM695.936 267.008L927.723 35.221L882.475 -10.048L650.709 221.717A318.6770000000001 318.6770000000001 0 0 0 448 149.333C271.275 149.333 128 292.608 128 469.333C128 646.059 271.275 789.333 448 789.333S768 646.059 768 469.333C768 392.576 740.97 322.133 695.936 267.008zM448 213.333C589.376 213.333 704 327.957 704 469.333S589.376 725.333 448 725.333S192 610.709 192 469.333S306.624 213.333 448 213.333z" />
    <glyph glyph-name="mtdicon-insert-row-down"
      unicode="&#xE04B;"
      horiz-adv-x="1024" d=" M298.667 128H405.333V64H298.667V-32L85.333 96L298.667 224V128zM768 405.333H128V469.333H768V704H128V768H810.667A21.332999999999995 21.332999999999995 0 0 0 832 746.667V256H768V405.333zM469.333 192H896V0H469.333V192z" />
    <glyph glyph-name="mtdicon-insert-row-up"
      unicode="&#xE04C;"
      horiz-adv-x="1024" d=" M298.667 704H405.333V640H298.667V544L85.333 672L298.667 800V704zM768 298.667H128V362.667H768V512H832V21.333A21.332999999999995 21.332999999999995 0 0 0 810.667 0H128V64H768V298.667zM469.333 768H896V576H469.333V768z" />
    <glyph glyph-name="mtdicon-insert-column-right"
      unicode="&#xE04D;"
      horiz-adv-x="1024" d=" M832 597.333V469.333H768V597.333H672L800 810.667L928 597.333H832zM426.667 149.333V768H490.667V149.333H640V85.333H149.333A21.332999999999995 21.332999999999995 0 0 0 128 106.667V768H192V149.333H426.667zM704 426.667H896V0H704V426.667z" />
    <glyph glyph-name="mtdicon-file-import-fill"
      unicode="&#xE04E;"
      horiz-adv-x="1024" d=" M192 810.667H661.333L853.333 618.667V-21.333A21.332999999999995 21.332999999999995 0 0 0 832 -42.667H192A21.332999999999995 21.332999999999995 0 0 0 170.667 -21.333V789.333A21.332999999999995 21.332999999999995 0 0 0 192 810.667zM533.333 416H277.333V352H533.333V256L746.667 384L533.333 512V416z" />
    <glyph glyph-name="mtdicon-file-import"
      unicode="&#xE04F;"
      horiz-adv-x="1024" d=" M384 352H128V416H384V512L597.333 384L384 256V352zM234.667 661.333H170.667V789.333A21.332999999999995 21.332999999999995 0 0 0 192 810.667H661.333L853.333 618.667V-21.333A21.332999999999995 21.332999999999995 0 0 0 832 -42.667H192A21.332999999999995 21.332999999999995 0 0 0 170.667 -21.333V106.667H234.667V21.333H789.333V592.15L634.816 746.667H234.666V661.333z" />
    <glyph glyph-name="mtdicon-sort"
      unicode="&#xE050;"
      horiz-adv-x="1024" d=" M521.237 783.936L705.451 463.979A10.667 10.667 0 0 0 696.213 448H327.787A10.667 10.667 0 0 0 318.549 464L502.763 783.936A10.667 10.667 0 0 0 521.237 783.936zM521.237 -15.936A10.667 10.667 0 0 0 502.763 -15.936L318.549 304A10.667 10.667 0 0 0 327.787 319.979H696.213A10.667 10.667 0 0 0 705.451 303.979L521.237 -15.957z" />
    <glyph glyph-name="mtdicon-h2"
      unicode="&#xE051;"
      horiz-adv-x="1024" d=" M192 416H533.333V768H597.333V0H533.333V352H192V0H128V768H192V416zM768 64H896V0H704V234.667H832V341.333H704V405.333H896V170.667H768V64z" />
    <glyph glyph-name="mtdicon-h1"
      unicode="&#xE052;"
      horiz-adv-x="1024" d=" M768 405.333H896V0H832V341.333H768V405.333zM192 416H533.333V768H597.333V0H533.333V352H192V0H128V768H192V416z" />
    <glyph glyph-name="mtdicon-bank-card-fill"
      unicode="&#xE053;"
      horiz-adv-x="1024" d=" M938.667 533.333H85.333V704A21.332999999999995 21.332999999999995 0 0 0 106.667 725.333H917.333A21.332999999999995 21.332999999999995 0 0 0 938.667 704V533.333zM938.667 469.333V64A21.332999999999995 21.332999999999995 0 0 0 917.333 42.667H106.667A21.332999999999995 21.332999999999995 0 0 0 85.333 64V469.333H938.667zM533.333 256V192H789.333V256H533.333z" />
    <glyph glyph-name="mtdicon-sad"
      unicode="&#xE054;"
      horiz-adv-x="1024" d=" M512 -42.667C276.352 -42.667 85.333 148.352 85.333 384S276.352 810.667 512 810.667S938.667 619.648 938.667 384S747.648 -42.667 512 -42.667zM341.333 533.333A64 64 0 1 1 341.333 405.333A64 64 0 0 1 341.333 533.333zM682.667 533.333A64 64 0 1 1 682.667 405.333A64 64 0 0 1 682.667 533.333zM340.224 171.221L397.483 142.592A128 128 0 0 0 512 213.333A128 128 0 0 0 626.517 142.592L683.776 171.222A192 192 0 0 1 512 277.332A192 192 0 0 1 340.224 171.22z" />
    <glyph glyph-name="mtdicon-invoice"
      unicode="&#xE055;"
      horiz-adv-x="1024" d=" M938.667 277.333V64A21.332999999999995 21.332999999999995 0 0 0 917.333 42.667H106.667A21.332999999999995 21.332999999999995 0 0 0 85.333 64V277.333H106.667A106.667 106.667 0 0 1 106.667 490.667H85.333V704A21.332999999999995 21.332999999999995 0 0 0 106.667 725.333H917.333A21.332999999999995 21.332999999999995 0 0 0 938.667 704V490.667H917.333A106.667 106.667 0 0 1 917.333 277.333H938.667zM746.667 384C746.667 463.53 801.067 530.347 874.667 549.29V661.334H149.333V549.292A170.73 170.73 0 0 0 149.333 218.71V106.668H874.667V218.709C801.067 237.653 746.667 304.469 746.667 384zM384 661.333H448V576H384V661.333zM384 170.667H448V106.667H384V170.667zM384 341.333H448V234.667H384V341.333zM384 512H448V405.333H384V512z" />
    <glyph glyph-name="mtdicon-visibility-on-fill"
      unicode="&#xE056;"
      horiz-adv-x="1024" d=" M512 64C354.901 64 212.693 170.667 85.333 384C212.693 597.333 354.901 704 512 704S811.307 597.333 938.667 384C811.307 170.667 669.099 64 512 64zM512 277.333A106.667 106.667 0 1 0 512 490.667A106.667 106.667 0 0 0 512 277.333zM512 213.333A170.667 170.667 0 1 1 512 554.667A170.667 170.667 0 0 1 512 213.333z" />
    <glyph glyph-name="mtdicon-meh"
      unicode="&#xE057;"
      horiz-adv-x="1024" d=" M512 -42.667C276.352 -42.667 85.333 148.352 85.333 384S276.352 810.667 512 810.667S938.667 619.648 938.667 384S747.648 -42.667 512 -42.667zM341.333 533.333A64 64 0 1 1 341.333 405.333A64 64 0 0 1 341.333 533.333zM682.667 533.333A64 64 0 1 1 682.667 405.333A64 64 0 0 1 682.667 533.333zM362.667 256V192H661.333V256H362.667z" />
    <glyph glyph-name="mtdicon-copy"
      unicode="&#xE058;"
      horiz-adv-x="1024" d=" M725.333 618.667V21.333A21.332999999999995 21.332999999999995 0 0 0 704 0H149.333A21.332999999999995 21.332999999999995 0 0 0 128 21.333V618.667A21.332999999999995 21.332999999999995 0 0 0 149.333 640H704A21.332999999999995 21.332999999999995 0 0 0 725.333 618.667zM789.333 704H405.333V768H832A21.332999999999995 21.332999999999995 0 0 0 853.333 746.667V213.333H789.333V704z" />
    <glyph glyph-name="mtdicon-delete"
      unicode="&#xE059;"
      horiz-adv-x="1024" d=" M277.333 682.667V789.333A21.332999999999995 21.332999999999995 0 0 0 298.667 810.667H725.333A21.332999999999995 21.332999999999995 0 0 0 746.667 789.333V682.667H938.667V618.667H853.333V-21.333A21.332999999999995 21.332999999999995 0 0 0 832 -42.667L192 -42.496A21.332999999999995 21.332999999999995 0 0 0 170.667 -21.163V618.667H85.333V682.667H277.333zM352 469.333V170.667H416V469.333H352zM608 469.333V170.667H672V469.333H608zM682.667 682.667V746.667H341.333V682.667H682.667z" />
    <glyph glyph-name="mtdicon-avatar-add-fill"
      unicode="&#xE05A;"
      horiz-adv-x="1024" d=" M469.333 384A192 192 0 1 0 469.333 768A192 192 0 0 0 469.333 384zM661.333 318.933V0H85.333V106.667C85.333 224.49 180.843 320 298.667 320H640C647.19 320 654.315 319.637 661.333 318.933zM789.333 42.667V277.333H853.333V42.667H789.333zM704 192H938.667V128H704V192z" />
    <glyph glyph-name="mtdicon-bankcard"
      unicode="&#xE05B;"
      horiz-adv-x="1024" d=" M149.333 533.333H874.667V661.333H149.333V533.333zM149.333 469.333V106.667H874.667V469.333H149.333zM938.667 704V64A21.332999999999995 21.332999999999995 0 0 0 917.333 42.667H106.667A21.332999999999995 21.332999999999995 0 0 0 85.333 64V704A21.332999999999995 21.332999999999995 0 0 0 106.667 725.333H917.333A21.332999999999995 21.332999999999995 0 0 0 938.667 704zM533.333 256H789.333V192H533.333V256z" />
    <glyph glyph-name="mtdicon-avatar-fill"
      unicode="&#xE05C;"
      horiz-adv-x="1024" d=" M512 384A192 192 0 1 0 512 768A192 192 0 0 0 512 384zM341.333 320H682.667C800.49 320 896 224.49 896 106.667V0H128V106.667C128 224.49 223.51 320 341.333 320z" />
    <glyph glyph-name="mtdicon-info-circle"
      unicode="&#xE05D;"
      horiz-adv-x="1024" d=" M512 810.667C747.648 810.667 938.667 619.648 938.667 384S747.648 -42.667 512 -42.667S85.333 148.352 85.333 384S276.352 810.667 512 810.667zM554.667 533.333V618.667H469.333V533.333H554.667zM554.667 149.333V469.333H469.333V149.333H554.667z" />
    <glyph glyph-name="mtdicon-add-square-fill"
      unicode="&#xE05E;"
      horiz-adv-x="1024" d=" M149.333 768H874.667A21.332999999999995 21.332999999999995 0 0 0 896 746.667V21.333A21.332999999999995 21.332999999999995 0 0 0 874.667 0H149.333A21.332999999999995 21.332999999999995 0 0 0 128 21.333V746.667A21.332999999999995 21.332999999999995 0 0 0 149.333 768zM544 416V597.333H480V416H298.667V352H480V170.667H544V352H725.333V416H544z" />
    <glyph glyph-name="mtdicon-checkbox-indetermina"
      unicode="&#xE05F;"
      horiz-adv-x="1024" d=" M149.333 768H874.667A21.332999999999995 21.332999999999995 0 0 0 896 746.667V21.333A21.332999999999995 21.332999999999995 0 0 0 874.667 0H149.333A21.332999999999995 21.332999999999995 0 0 0 128 21.333V746.667A21.332999999999995 21.332999999999995 0 0 0 149.333 768zM298.667 352H725.333V416H298.667V352z" />
    <glyph glyph-name="mtdicon-checkbox-indetermina-o"
      unicode="&#xE060;"
      horiz-adv-x="1024" d=" M192 64H832V704H192V64zM149.333 768H874.667A21.332999999999995 21.332999999999995 0 0 0 896 746.667V21.333A21.332999999999995 21.332999999999995 0 0 0 874.667 0H149.333A21.332999999999995 21.332999999999995 0 0 0 128 21.333V746.667A21.332999999999995 21.332999999999995 0 0 0 149.333 768zM320 352V416H704V352H320z" />
    <glyph glyph-name="mtdicon-add-square-o"
      unicode="&#xE061;"
      horiz-adv-x="1024" d=" M192 64H832V704H192V64zM149.333 768H874.667A21.332999999999995 21.332999999999995 0 0 0 896 746.667V21.333A21.332999999999995 21.332999999999995 0 0 0 874.667 0H149.333A21.332999999999995 21.332999999999995 0 0 0 128 21.333V746.667A21.332999999999995 21.332999999999995 0 0 0 149.333 768zM544 416H704V352H544V192H480V352H320V416H480V576H544V416z" />
    <glyph glyph-name="mtdicon-load"
      unicode="&#xE062;"
      horiz-adv-x="1024" d=" M210.304 685.696A425.32300000000004 425.32300000000004 0 0 0 512 810.666C747.648 810.666 938.667 619.648 938.667 384A425.32300000000004 425.32300000000004 0 0 0 813.696 82.304L768.448 127.552A361.536 361.536 0 0 1 874.667 384C874.667 584.299 712.299 746.667 512 746.667A361.536 361.536 0 0 1 255.573 640.427L210.283 685.717z" />
    <glyph glyph-name="mtdicon-telephone"
      unicode="&#xE063;"
      horiz-adv-x="1024" d=" M269.952 429.568A685.739 685.739 0 0 1 555.733 142.933L641.6 307.307L893.419 259.221L895.189 64.299L896 64.32V0.299C888.917 0.085 881.792 0 874.667 0C462.293 0 128 334.293 128 746.667C128 753.792 128.107 760.917 128.299 768H192.32V767.787L383.936 766.059L432.043 514.24L269.952 429.547zM242.944 487.445L356.074 545.536L326.421 699.349H193.643A678.976 678.976 0 0 1 242.965 487.445zM616.491 114.496A679.125 679.125 0 0 1 832 65.301V205.035L678.187 234.667L616.491 114.496z" />
    <glyph glyph-name="mtdicon-comment"
      unicode="&#xE064;"
      horiz-adv-x="1024" d=" M853.333 124.587V639.595H170.667V124.587H431.85L512 43.947L592.15 124.587H853.333zM618.667 60.16L519.573 -39.53A10.667 10.667 0 0 0 504.427 -39.53L405.333 60.181H128A21.332999999999995 21.332999999999995 0 0 0 106.667 81.515V682.667A21.332999999999995 21.332999999999995 0 0 0 128 704H896A21.332999999999995 21.332999999999995 0 0 0 917.333 682.667V81.515A21.332999999999995 21.332999999999995 0 0 0 896 60.18H618.667zM607.424 426.667L664.683 398.037A170.667 170.667 0 0 0 512 303.723A170.667 170.667 0 0 0 359.317 398.037L416.576 426.667A106.667 106.667 0 0 1 607.424 426.667z" />
    <glyph glyph-name="mtdicon-picture"
      unicode="&#xE065;"
      horiz-adv-x="1024" d=" M149.333 256L384 490.667L618.667 256L746.667 384L874.667 256V661.333H149.333V256zM149.333 165.483V106.667H874.667V165.483L746.667 293.483L618.667 165.483L384 400.149L149.333 165.483zM938.667 704V64A21.332999999999995 21.332999999999995 0 0 0 917.333 42.667H106.667A21.332999999999995 21.332999999999995 0 0 0 85.333 64V704A21.332999999999995 21.332999999999995 0 0 0 106.667 725.333H917.333A21.332999999999995 21.332999999999995 0 0 0 938.667 704zM618.667 448A64 64 0 1 0 618.667 576A64 64 0 0 0 618.667 448z" />
    <glyph glyph-name="mtdicon-folder"
      unicode="&#xE066;"
      horiz-adv-x="1024" d=" M170.667 725.333V106.667H853.333V618.667H496.64A32 32 0 0 0 471.637 630.677L395.904 725.333H170.667zM128 789.333H411.307A32 32 0 0 0 436.267 777.323L512 682.667H896A21.332999999999995 21.332999999999995 0 0 0 917.333 661.333V64A21.332999999999995 21.332999999999995 0 0 0 896 42.667H128A21.332999999999995 21.332999999999995 0 0 0 106.667 64V768A21.332999999999995 21.332999999999995 0 0 0 128 789.333z" />
    <glyph glyph-name="mtdicon-tailoring"
      unicode="&#xE067;"
      horiz-adv-x="1024" d=" M234.667 128V597.333H298.667V170.667H917.333V106.667H789.333V-21.333H725.333V106.667H256A21.332999999999995 21.332999999999995 0 0 0 234.667 128zM298.667 789.333V597.333H106.667V661.333H234.667V789.333H298.667zM362.667 661.333H768A21.332999999999995 21.332999999999995 0 0 0 789.333 640V234.667H725.333V597.333H362.667V661.333z" />
    <glyph glyph-name="mtdicon-rotate"
      unicode="&#xE068;"
      horiz-adv-x="1024" d=" M469.27 640H437.27C281.493 640 154.603 516.373 149.376 361.899H85.333C90.581 551.723 246.144 704 437.27 704C448.044 704 458.732 703.51 469.27 702.57V640zM383.915 405.333V21.333H874.645V405.333H383.915zM319.915 448A21.332999999999995 21.332999999999995 0 0 0 341.248 469.333H917.333A21.332999999999995 21.332999999999995 0 0 0 938.667 448V-21.333A21.332999999999995 21.332999999999995 0 0 0 917.333 -42.667H341.227A21.332999999999995 21.332999999999995 0 0 0 319.893 -21.333V448zM469.248 704V800L682.581 672L469.248 544V682.667H437.333V704H469.269z" />
    <glyph glyph-name="mtdicon-lookup"
      unicode="&#xE069;"
      horiz-adv-x="1024" d=" M234.667 746.667V21.333H789.333V592.15L634.816 746.667H234.666zM192 810.667H661.333L853.333 618.667V-21.333A21.332999999999995 21.332999999999995 0 0 0 832 -42.667H192A21.332999999999995 21.332999999999995 0 0 0 170.667 -21.333V789.333A21.332999999999995 21.332999999999995 0 0 0 192 810.667zM546.923 303.829A160 160 0 1 0 592.171 349.077L715.115 226.155L669.845 180.885L546.923 303.83zM526.549 369.451A96 96 0 1 1 390.784 505.216A96 96 0 0 1 526.549 369.451z" />
    <glyph glyph-name="mtdicon-play"
      unicode="&#xE06A;"
      horiz-adv-x="1024" d=" M512 -42.667C276.352 -42.667 85.333 148.352 85.333 384S276.352 810.667 512 810.667S938.667 619.648 938.667 384S747.648 -42.667 512 -42.667zM512 21.333C712.299 21.333 874.667 183.701 874.667 384S712.299 746.667 512 746.667S149.333 584.299 149.333 384S311.701 21.333 512 21.333zM426.667 533.333L682.667 384L426.667 234.667V533.333z" />
    <glyph glyph-name="mtdicon-file-export"
      unicode="&#xE06B;"
      horiz-adv-x="1024" d=" M341.333 416H597.333V352H341.333V256L128 384L341.333 512V416zM234.667 661.333H170.667V789.333A21.332999999999995 21.332999999999995 0 0 0 192 810.667H661.333L853.333 618.667V-21.333A21.332999999999995 21.332999999999995 0 0 0 832 -42.667H192A21.332999999999995 21.332999999999995 0 0 0 170.667 -21.333V106.667H234.667V21.333H789.333V592.15L634.816 746.667H234.666V661.333z" />
    <glyph glyph-name="mtdicon-file-send"
      unicode="&#xE06C;"
      horiz-adv-x="1024" d=" M170.667 725.333V106.667H853.333V618.667H496.64A32 32 0 0 0 471.637 630.677L395.904 725.333H170.667zM128 789.333H411.307A32 32 0 0 0 436.267 777.323L512 682.667H896A21.332999999999995 21.332999999999995 0 0 0 917.333 661.333V64A21.332999999999995 21.332999999999995 0 0 0 896 42.667H128A21.332999999999995 21.332999999999995 0 0 0 106.667 64V768A21.332999999999995 21.332999999999995 0 0 0 128 789.333zM544 330.667V213.333H480V330.667H405.333L512 512L618.667 330.667H544z" />
    <glyph glyph-name="mtdicon-file"
      unicode="&#xE06D;"
      horiz-adv-x="1024" d=" M234.667 746.667V21.333H789.333V592.15L634.816 746.667H234.666zM192 810.667H661.333L853.333 618.667V-21.333A21.332999999999995 21.332999999999995 0 0 0 832 -42.667H192A21.332999999999995 21.332999999999995 0 0 0 170.667 -21.333V789.333A21.332999999999995 21.332999999999995 0 0 0 192 810.667zM341.333 576H554.667V512H341.333V576zM341.333 426.667H682.667V362.667H341.333V426.667zM341.333 277.333H682.667V213.333H341.333V277.333z" />
    <glyph glyph-name="mtdicon-mosaic"
      unicode="&#xE06E;"
      horiz-adv-x="1024" d=" M320 768V576H128V768H320zM704 768V576H512V768H704zM896 576V384H704V576H896zM512 576V384H320V576H512zM320 384V192H128V384H320zM704 384V192H512V384H704zM896 192V0H704V192H896zM512 192V0H320V192H512z" />
    <glyph glyph-name="mtdicon-folder-fill"
      unicode="&#xE06F;"
      horiz-adv-x="1024" d=" M128 789.333H411.307A32 32 0 0 0 436.267 777.323L512 682.667H896A21.332999999999995 21.332999999999995 0 0 0 917.333 661.333V64A21.332999999999995 21.332999999999995 0 0 0 896 42.667H128A21.332999999999995 21.332999999999995 0 0 0 106.667 64V768A21.332999999999995 21.332999999999995 0 0 0 128 789.333z" />
    <glyph glyph-name="mtdicon-contacts"
      unicode="&#xE070;"
      horiz-adv-x="1024" d=" M661.333 64V0H85.333V106.667C85.333 224.49 180.843 320 298.667 320H640C647.19 320 654.315 319.637 661.333 318.933V254.507A150.613 150.613 0 0 1 640 256H298.667A149.333 149.333 0 0 1 149.333 106.667V64H661.333zM469.333 448A128 128 0 1 1 469.333 704A128 128 0 0 1 469.333 448zM469.333 384A192 192 0 1 0 469.333 768A192 192 0 0 0 469.333 384zM725.333 320H938.667V256H725.333V320zM725.333 192H938.667V128H725.333V192zM725.333 64H938.667V0H725.333V64z" />
    <glyph glyph-name="mtdicon-avatar-group"
      unicode="&#xE071;"
      horiz-adv-x="1024" d=" M384 469.333A85.333 85.333 0 1 1 384 640A85.333 85.333 0 0 1 384 469.333zM384 405.333A149.333 149.333 0 1 0 384 704A149.333 149.333 0 0 0 384 405.333zM149.333 128H597.333V149.333C597.333 209.131 553.387 277.333 501.333 277.333H245.333C193.28 277.333 149.333 209.131 149.333 149.333V128zM245.333 341.333H501.333C589.696 341.333 661.333 243.584 661.333 149.333V64H85.333V149.333C85.333 243.584 156.971 341.333 245.333 341.333zM706.731 234.667A266.453 266.453 0 0 1 669.952 298.667H802.368C877.653 298.667 938.667 213.653 938.667 135.104V64H725.333V128H874.667V135.104C874.667 178.901 841.685 234.667 802.368 234.667H706.731zM704 405.333A64 64 0 1 1 704 533.333A64 64 0 0 1 704 405.333zM704 341.333A128 128 0 1 0 704 597.333A128 128 0 0 0 704 341.333z" />
    <glyph glyph-name="mtdicon-camera"
      unicode="&#xE072;"
      horiz-adv-x="1024" d=" M149.333 618.667V85.333H874.667V618.667H690.219L622.507 722.432H401.493L333.781 618.667H149.333zM294.528 682.667L357.547 779.627A21.332999999999995 21.332999999999995 0 0 0 375.424 789.333H648.576A21.332999999999995 21.332999999999995 0 0 0 666.453 779.627L729.472 682.667H917.333A21.332999999999995 21.332999999999995 0 0 0 938.667 661.333V42.667A21.332999999999995 21.332999999999995 0 0 0 917.333 21.333H106.667A21.332999999999995 21.332999999999995 0 0 0 85.333 42.667V661.333A21.332999999999995 21.332999999999995 0 0 0 106.667 682.667H294.528zM512 245.333A138.667 138.667 0 1 1 512 522.667A138.667 138.667 0 0 1 512 245.333zM512 181.333A202.667 202.667 0 1 0 512 586.667A202.667 202.667 0 0 0 512 181.333z" />
    <glyph glyph-name="mtdicon-fabulous"
      unicode="&#xE073;"
      horiz-adv-x="1024" d=" M128 469.333H192V21.333H128V469.333zM320 448V85.333H693.333L832 320V426.667H533.333V704A42.667 42.667 0 0 1 490.667 746.667L320 448zM597.333 490.667H874.667A21.332999999999995 21.332999999999995 0 0 0 896 469.333V311.253A32 32 0 0 0 891.541 294.976L739.136 37.056A32 32 0 0 0 711.595 21.333H277.333A21.332999999999995 21.332999999999995 0 0 0 256 42.667V456.49A32 32 0 0 0 260.224 472.383L444.331 794.538A32 32 0 0 0 472.107 810.666H490.667A106.667 106.667 0 0 0 597.333 704V490.667z" />
    <glyph glyph-name="mtdicon-comment-fill"
      unicode="&#xE074;"
      horiz-adv-x="1024" d=" M618.667 60.181L519.573 -39.509A10.667 10.667 0 0 0 504.469 -39.552L504.427 -39.509L405.333 60.181H128A21.332999999999995 21.332999999999995 0 0 0 106.667 81.515V682.667A21.332999999999995 21.332999999999995 0 0 0 128 704H896A21.332999999999995 21.332999999999995 0 0 0 917.333 682.667V81.515A21.332999999999995 21.332999999999995 0 0 0 896 60.18H618.667zM632.747 410.517A128.064 128.064 0 0 0 391.253 410.517L333.44 382.357A192.064 192.064 0 0 1 690.56 382.357L632.747 410.517z" />
    <glyph glyph-name="mtdicon-avatar-add"
      unicode="&#xE075;"
      horiz-adv-x="1024" d=" M661.333 64V0H85.333V106.667C85.333 224.49 180.843 320 298.667 320H640C647.19 320 654.315 319.637 661.333 318.933V254.507A150.613 150.613 0 0 1 640 256H298.667A149.333 149.333 0 0 1 149.333 106.667V64H661.333zM469.333 448A128 128 0 1 1 469.333 704A128 128 0 0 1 469.333 448zM469.333 384A192 192 0 1 0 469.333 768A192 192 0 0 0 469.333 384zM789.333 128H704V192H789.333V277.333H853.333V192H938.667V128H853.333V42.667H789.333V128z" />
    <glyph glyph-name="mtdicon-colorfont"
      unicode="&#xE076;"
      horiz-adv-x="1024" d=" M625.216 384H398.784L328.021 190.57H259.413L469.12 763.84V768H555.093V763.243L764.587 190.57H695.979L625.216 384zM601.792 448L512 693.483L422.187 448H601.813zM128 128H896V0H128V128z" />
    <glyph glyph-name="mtdicon-toc"
      unicode="&#xE077;"
      horiz-adv-x="1024" d=" M320 768H896V640H320V768zM490.667 448H896V320H490.667V448zM192 661.333V405.333H426.667V341.333H192V85.333H426.667V21.333H128V725.333H256V661.333H192zM490.667 128H896V0H490.667V128z" />
    <glyph glyph-name="mtdicon-underlined"
      unicode="&#xE078;"
      horiz-adv-x="1024" d=" M128 64H896V0H128V64zM768 448C768 306.624 653.376 192 512 192S256 306.624 256 448V768H320V448A192 192 0 0 1 704 448V768H768V448z" />
    <glyph glyph-name="mtdicon-merge-cells"
      unicode="&#xE079;"
      horiz-adv-x="1024" d=" M277.333 352H192V64H384V192H448V0H149.333A21.332999999999995 21.332999999999995 0 0 0 128 21.333V746.667A21.332999999999995 21.332999999999995 0 0 0 149.333 768H448V576H384V704H192V416H277.333V512L490.667 384L277.333 256V352zM640 64H832V352H746.667V256L533.333 384L746.667 512V416H832V704H640V576H576V768H874.667A21.332999999999995 21.332999999999995 0 0 0 896 746.667V21.333A21.332999999999995 21.332999999999995 0 0 0 874.667 0H576V192H640V64z" />
    <glyph glyph-name="mtdicon-unmerge-cells"
      unicode="&#xE07A;"
      horiz-adv-x="1024" d=" M896 192V21.333A21.332999999999995 21.332999999999995 0 0 0 874.667 0H576V768H874.667A21.332999999999995 21.332999999999995 0 0 0 896 746.667V576H832V704H640V416H725.333V512L938.667 384L725.333 256V352H640V64H832V192H896zM192 64H384V352H298.667V256L85.333 384L298.667 512V416H384V704H192V576H128V746.667A21.332999999999995 21.332999999999995 0 0 0 149.333 768H448V0H149.333A21.332999999999995 21.332999999999995 0 0 0 128 21.333V192H192V64z" />
    <glyph glyph-name="mtdicon-paint"
      unicode="&#xE07B;"
      horiz-adv-x="1024" d=" M709.163 507.67L559.829 358.335H576V-4.332H448V358.336H469.312L618.645 507.669H192A21.332999999999995 21.332999999999995 0 0 0 170.667 529.003V742.336A21.332999999999995 21.332999999999995 0 0 0 192 763.669H832A21.332999999999995 21.332999999999995 0 0 0 853.333 742.336V529.003A21.332999999999995 21.332999999999995 0 0 0 832 507.669H709.163zM682.645 571.67L683.925 572.95L685.227 571.67H789.333V699.67H234.667V571.67H682.645z" />
    <glyph glyph-name="mtdicon-serikeethrough"
      unicode="&#xE07C;"
      horiz-adv-x="1024" d=" M340.864 426.667C301.44 462.933 277.334 511.701 277.334 565.333C277.333 677.27 382.4 768 512 768C637.44 768 739.925 682.965 746.347 576H682.176C675.456 647.595 601.813 704 512 704C417.75 704 341.333 641.92 341.333 565.333S417.75 426.667 512 426.667H896V362.667H694.827C740.096 324.18 768 271.467 768 213.333C768 95.51 653.376 0 512 0S256 95.51 256 213.333H320C320 130.86 405.973 64 512 64S704 130.859 704 213.333S618.027 362.667 512 362.667H128V426.667H340.864z" />
    <glyph glyph-name="mtdicon-list-numbered"
      unicode="&#xE07D;"
      horiz-adv-x="1024" d=" M341.333 736H896V672H341.333V736zM341.333 416H896V352H341.333V416zM341.333 96H896V32H341.333V96zM128 106.667V149.333H256V-21.333H128V21.333H213.333V42.667H170.667V85.333H213.333V106.667H128zM170.667 618.667V746.667H128V789.333H213.333V618.667H170.667zM128 426.667V469.333H256V430.933L179.2 341.333H256V298.667H128V337.067L204.8 426.667H128z" />
    <glyph glyph-name="mtdicon-italic"
      unicode="&#xE07E;"
      horiz-adv-x="1024" d=" M396.33 85.333L556.373 682.667H405.333V746.667H789.333V682.667H622.635L462.592 85.333H618.667V21.333H234.667V85.333z" />
    <glyph glyph-name="mtdicon-list-bulleted"
      unicode="&#xE07F;"
      horiz-adv-x="1024" d=" M341.333 757.333H896V693.333H341.333V757.333zM341.333 416H896V352H341.333V416zM341.333 74.667H896V10.667H341.333V74.667zM128 789.333H256V661.333H128V789.333zM128 106.667H256V-21.333H128V106.667zM128 448H256V320H128V448z" />
    <glyph glyph-name="mtdicon-color-fill"
      unicode="&#xE080;"
      horiz-adv-x="1024" d=" M653.61 463.723L442.41 674.9L231.21 463.7H653.61zM397.164 810.667L729.025 478.805A21.332999999999995 21.332999999999995 0 0 0 729.025 448.619L457.495 177.109A21.332999999999995 21.332999999999995 0 0 0 427.329 177.109L155.799 448.619A21.332999999999995 21.332999999999995 0 0 0 155.799 478.805L397.162 720.15L351.914 765.441L397.162 810.668zM128 128H896V0H128V128zM771.797 187.67A64 64 0 0 0 707.797 251.67C707.797 275.243 729.131 317.91 771.797 379.67C814.464 317.91 835.797 275.243 835.797 251.67A64 64 0 0 0 771.797 187.67z" />
    <glyph glyph-name="mtdicon-form"
      unicode="&#xE081;"
      horiz-adv-x="1024" d=" M832 298.667V469.333H661.333V298.667H832zM832 234.667H661.333V64H597.333V234.667H426.667V64H362.667V234.667H192V64H832V234.667zM192 298.667H362.667V469.333H192V298.667zM426.667 298.667H597.333V469.333H426.667V298.667zM832 533.333V704H192V533.333H362.667V704H426.667V533.333H597.333V704H661.333V533.333H832zM149.333 768H874.667A21.332999999999995 21.332999999999995 0 0 0 896 746.667V21.333A21.332999999999995 21.332999999999995 0 0 0 874.667 0H149.333A21.332999999999995 21.332999999999995 0 0 0 128 21.333V746.667A21.332999999999995 21.332999999999995 0 0 0 149.333 768z" />
    <glyph glyph-name="mtdicon-delete-selected-row"
      unicode="&#xE082;"
      horiz-adv-x="1024" d=" M85.333 288H597.333V480H85.333V288zM469.333 224V64H85.333V0H512A21.332999999999995 21.332999999999995 0 0 1 533.333 21.333V224H469.333zM533.333 544V746.667A21.332999999999995 21.332999999999995 0 0 1 512 768H85.333V704H469.333V544H533.333zM682.667 467.285L765.952 384L682.667 300.715L727.38 256L810.666 339.285L893.952 256L938.667 300.715L855.38 384L938.666 467.285L893.952 512L810.667 428.715L727.38 512L682.666 467.285z" />
    <glyph glyph-name="mtdicon-formatbold"
      unicode="&#xE083;"
      horiz-adv-x="1024" d=" M679.936 399.68A213.27 213.27 0 0 0 789.333 213.333C789.333 95.51 693.824 0 576 0H234.667V768H533.333C651.157 768 746.667 672.49 746.667 554.667A212.736 212.736 0 0 0 679.936 399.68zM320 682.667V426.667H533.333A128 128 0 1 1 533.333 682.667H320zM320 341.333V85.333H576A128 128 0 1 1 576 341.333H320z" />
    <glyph glyph-name="mtdicon-delete-selectedcolumn"
      unicode="&#xE084;"
      horiz-adv-x="1024" d=" M608 768V341.333H416V768H608zM672 469.333H874.667V768H938.667V426.667A21.332999999999995 21.332999999999995 0 0 0 917.333 405.333H672V469.333zM352 405.333H106.667A21.332999999999995 21.332999999999995 0 0 0 85.333 426.667V768H149.333V469.333H352V405.333zM428.181 257.963L512.448 173.696L596.715 257.963L641.941 212.715L557.696 128.448L641.963 44.181L596.715 -1.067L512.448 83.2L428.181 -1.067L382.933 44.181L467.2 128.448L382.933 212.715L428.181 257.941z" />
    <glyph glyph-name="mtdicon-align-left"
      unicode="&#xE085;"
      horiz-adv-x="1024" d=" M128 768H896V704H128V768zM128 533.333H682.667V469.333H128V533.333zM128 298.667H896V234.667H128V298.667zM128 64H682.667V0H128V64z" />
    <glyph glyph-name="mtdicon-align-right"
      unicode="&#xE086;"
      horiz-adv-x="1024" d=" M128 768H896V704H128V768zM341.333 533.333H896V469.333H341.333V533.333zM128 298.667H896V234.667H128V298.667zM341.333 64H896V0H341.333V64z" />
    <glyph glyph-name="mtdicon-cleaner-format"
      unicode="&#xE087;"
      horiz-adv-x="1024" d=" M290.987 85.333L112.917 263.403A21.332999999999995 21.332999999999995 0 0 0 112.917 293.589L580.544 761.216A21.332999999999995 21.332999999999995 0 0 0 610.709 761.216L897.323 474.603A21.332999999999995 21.332999999999995 0 0 0 897.323 444.437L538.24 85.333H896V21.333H128V85.333H290.987zM381.504 85.333H447.723L610.709 248.32L384.448 474.603L188.331 278.507L381.504 85.333z" />
    <glyph glyph-name="mtdicon-align-center"
      unicode="&#xE088;"
      horiz-adv-x="1024" d=" M128 768H896V704H128V768zM256 533.333H768V469.333H256V533.333zM128 298.667H896V234.667H128V298.667zM256 64H768V0H256V64z" />
    <glyph glyph-name="mtdicon-align-justify"
      unicode="&#xE089;"
      horiz-adv-x="1024" d=" M128 768H896V704H128V768zM128 533.333H896V469.333H128V533.333zM128 298.667H896V234.667H128V298.667zM128 64H896V0H128V64z" />
    <glyph glyph-name="mtdicon-play-fill"
      unicode="&#xE08A;"
      horiz-adv-x="1024" d=" M512 -42.667C276.352 -42.667 85.333 148.352 85.333 384S276.352 810.667 512 810.667S938.667 619.648 938.667 384S747.648 -42.667 512 -42.667zM405.333 554.667V213.333L704 384L405.333 554.667z" />
    <glyph glyph-name="mtdicon-star-half"
      unicode="&#xE08B;"
      horiz-adv-x="1024" d=" M321.557 79.21L512 195.52L702.443 79.21L650.667 296.277L820.16 441.451L597.696 459.285L512 665.387L426.304 459.307L203.84 441.472L373.333 296.299L321.557 79.232zM512 120.534L245.483 -42.24A10.667 10.667 0 0 0 229.547 -30.677L302.016 273.109L64.832 476.267A10.667 10.667 0 0 0 70.912 494.997L382.208 519.957L502.144 808.32A10.667 10.667 0 0 0 521.856 808.32L641.792 519.957L953.088 494.997A10.667 10.667 0 0 0 959.168 476.267L721.984 273.109L794.454 -30.677A10.667 10.667 0 0 0 778.517 -42.261L512 120.533zM512 814.892V120.534L245.483 -42.24A10.667 10.667 0 0 0 229.547 -30.677L302.016 273.109L64.832 476.267A10.667 10.667 0 0 0 70.912 494.997L382.208 519.957L502.144 808.32A10.667 10.667 0 0 0 512 814.89z" />
    <glyph glyph-name="mtdicon-telephone-fill"
      unicode="&#xE08C;"
      horiz-adv-x="1024" d=" M288.853 439.445A664.3199999999999 664.3199999999999 0 0 1 565.611 161.835L641.6 307.307L893.419 259.221L894.997 85.632L896 85.675V0.299C888.917 0.085 881.792 0 874.667 0C462.293 0 128 334.293 128 746.667C128 753.792 128.107 760.917 128.299 768H213.675V767.616L383.936 766.059L432.043 514.24L288.875 439.445z" />
    <glyph glyph-name="mtdicon-setting-fill"
      unicode="&#xE08D;"
      horiz-adv-x="1024" d=" M830.144 671.701A425.34400000000005 425.34400000000005 0 0 0 925.269 503.915L925.44 503.296A32 32 0 0 0 906.73 464.597L906.005 464.32A98.496 98.496 0 0 1 844.224 373.056A98.432 98.432 0 0 1 901.376 283.819L902.059 283.499A32 32 0 0 0 918.763 243.883L918.549 243.285A426.41 426.41 0 0 0 816.576 82.176L815.936 81.536A32 32 0 0 0 776.512 77.056L775.722 77.546A99.605 99.605 0 0 1 673.579 79.36A98.261 98.261 0 0 1 624.043 -3.2V-3.819A32 32 0 0 0 598.251 -34.261L597.483 -34.411A433.963 433.963 0 0 0 513.067 -42.667C476.736 -42.667 440.981 -38.187 406.4 -29.397L405.717 -29.205A32 32 0 0 0 381.653 -0.277L381.611 0.299A98.261 98.261 0 0 1 332.267 79.36A99.477 99.477 0 0 1 240.043 82.965L239.253 82.581A32 32 0 0 0 202.475 89.408L201.92 89.963A425.85599999999994 425.85599999999994 0 0 0 104.107 253.653L103.936 254.144A32 32 0 0 0 116.757 290.667L117.269 291.008A98.155 98.155 0 0 1 113.173 457.728L112.64 458.048A32 32 0 0 0 98.048 493.888L98.176 494.378A424.768 424.768 0 0 0 187.52 662.187L188.139 662.912A32 32 0 0 0 229.205 669.142L230.059 668.608C260.949 649.408 300.16 648.341 332.288 666.773A98.304 98.304 0 0 1 381.333 762.133L381.269 762.773A32 32 0 0 0 405.184 797.077L405.974 797.291A432.704 432.704 0 0 0 513.067 810.667C542.08 810.667 570.752 807.808 598.763 802.155L599.637 801.984A32 32 0 0 0 625.024 766.229L624.917 765.525A98.304 98.304 0 0 1 673.557 666.752A99.627 99.627 0 0 1 785.131 675.179L785.963 675.861A32 32 0 0 0 829.44 672.491L830.144 671.701zM384 384A128 128 0 1 1 640 384A128 128 0 0 1 384 384z" />
    <glyph glyph-name="mtdicon-schedule-fill"
      unicode="&#xE08E;"
      horiz-adv-x="1024" d=" M341.333 789.333V832A21.332999999999995 21.332999999999995 0 0 0 362.667 853.333H661.333A21.332999999999995 21.332999999999995 0 0 0 682.667 832V789.333H853.333A21.332999999999995 21.332999999999995 0 0 0 874.667 768V21.333A21.332999999999995 21.332999999999995 0 0 0 853.333 0H170.667A21.332999999999995 21.332999999999995 0 0 0 149.333 21.333V768A21.332999999999995 21.332999999999995 0 0 0 170.667 789.333H341.333zM476.181 313.685L376.832 413.035L331.584 367.787L461.099 238.272A21.332999999999995 21.332999999999995 0 0 1 491.264 238.272L711.296 458.282L666.048 503.552L476.181 313.685zM405.333 789.333V725.333H618.667V789.333H405.333z" />
    <glyph glyph-name="mtdicon-printing-fill"
      unicode="&#xE08F;"
      horiz-adv-x="1024" d=" M853.333 149.333V298.667H170.667V149.333H106.667A21.332999999999995 21.332999999999995 0 0 0 85.333 170.667V576A21.332999999999995 21.332999999999995 0 0 0 106.667 597.333H917.333A21.332999999999995 21.332999999999995 0 0 0 938.667 576V170.667A21.332999999999995 21.332999999999995 0 0 0 917.333 149.333H853.333zM234.667 480V416H362.667V480H234.667zM234.667 234.667H789.333V-42.667H234.667V234.667zM234.667 810.667H789.333V661.333H234.667V810.667z" />
    <glyph glyph-name="mtdicon-paste-code-fill"
      unicode="&#xE090;"
      horiz-adv-x="1024" d=" M149.333 768H874.667A21.332999999999995 21.332999999999995 0 0 0 896 746.667V21.333A21.332999999999995 21.332999999999995 0 0 0 874.667 0H149.333A21.332999999999995 21.332999999999995 0 0 0 128 21.333V746.667A21.332999999999995 21.332999999999995 0 0 0 149.333 768zM640 256V192H704V256H640zM576 256V192H640V256H576zM338.752 234.667L384 189.419L562.219 367.616A21.332999999999995 21.332999999999995 0 0 1 562.219 397.781L384 576L338.752 530.752L486.784 382.699L338.731 234.667z" />
    <glyph glyph-name="mtdicon-picture-fill"
      unicode="&#xE091;"
      horiz-adv-x="1024" d=" M149.333 256L384 490.667L618.667 256L746.667 384L874.667 256V661.333H149.333V256zM938.667 704V64A21.332999999999995 21.332999999999995 0 0 0 917.333 42.667H106.667A21.332999999999995 21.332999999999995 0 0 0 85.333 64V704A21.332999999999995 21.332999999999995 0 0 0 106.667 725.333H917.333A21.332999999999995 21.332999999999995 0 0 0 938.667 704zM618.667 448A64 64 0 1 0 618.667 576A64 64 0 0 0 618.667 448z" />
    <glyph glyph-name="mtdicon-mail-fill"
      unicode="&#xE092;"
      horiz-adv-x="1024" d=" M938.667 664.555L512 412.757L85.333 664.533V704A21.332999999999995 21.332999999999995 0 0 0 106.667 725.333H917.333A21.332999999999995 21.332999999999995 0 0 0 938.667 704V664.555zM938.667 590.293V64A21.332999999999995 21.332999999999995 0 0 0 917.333 42.667H106.667A21.332999999999995 21.332999999999995 0 0 0 85.333 64V590.293L495.787 348.437A32 32 0 0 1 528.256 348.437L938.666 590.293z" />
    <glyph glyph-name="mtdicon-lookup-fill"
      unicode="&#xE093;"
      horiz-adv-x="1024" d=" M192 810.667H661.333L853.333 618.667V-21.333A21.332999999999995 21.332999999999995 0 0 0 832 -42.667H192A21.332999999999995 21.332999999999995 0 0 0 170.667 -21.333V789.333A21.332999999999995 21.332999999999995 0 0 0 192 810.667zM565.27 306.816L703.147 168.939L748.395 214.165L610.517 352.064A170.667 170.667 0 1 1 565.269 306.816zM544.768 372.566A106.667 106.667 0 1 0 393.898 523.435A106.667 106.667 0 0 0 544.768 372.565z" />
    <glyph glyph-name="mtdicon-hierarchy-fill"
      unicode="&#xE094;"
      horiz-adv-x="1024" d=" M426.667 746.667H597.333A21.332999999999995 21.332999999999995 0 0 0 618.667 725.333V554.667A21.332999999999995 21.332999999999995 0 0 0 597.333 533.333H426.667A21.332999999999995 21.332999999999995 0 0 0 405.333 554.667V725.333A21.332999999999995 21.332999999999995 0 0 0 426.667 746.667zM426.667 234.667H597.333A21.332999999999995 21.332999999999995 0 0 0 618.667 213.333V42.667A21.332999999999995 21.332999999999995 0 0 0 597.333 21.333H426.667A21.332999999999995 21.332999999999995 0 0 0 405.333 42.667V213.333A21.332999999999995 21.332999999999995 0 0 0 426.667 234.667zM128 234.667H298.667A21.332999999999995 21.332999999999995 0 0 0 320 213.333V42.667A21.332999999999995 21.332999999999995 0 0 0 298.667 21.333H128A21.332999999999995 21.332999999999995 0 0 0 106.667 42.667V213.333A21.332999999999995 21.332999999999995 0 0 0 128 234.667zM725.333 234.667H896A21.332999999999995 21.332999999999995 0 0 0 917.333 213.333V42.667A21.332999999999995 21.332999999999995 0 0 0 896 21.333H725.333A21.332999999999995 21.332999999999995 0 0 0 704 42.667V213.333A21.332999999999995 21.332999999999995 0 0 0 725.333 234.667zM245.333 234.667H181.333V394.667A21.332999999999995 21.332999999999995 0 0 0 202.667 416H821.333A21.332999999999995 21.332999999999995 0 0 0 842.667 394.667V234.667H778.667V352H245.333V234.667zM480 576H544V234.667H480V576z" />
    <glyph glyph-name="mtdicon-invoice-fill"
      unicode="&#xE095;"
      horiz-adv-x="1024" d=" M938.667 277.333V64A21.332999999999995 21.332999999999995 0 0 0 917.333 42.667H106.667A21.332999999999995 21.332999999999995 0 0 0 85.333 64V277.333H106.667A106.667 106.667 0 0 1 106.667 490.667H85.333V704A21.332999999999995 21.332999999999995 0 0 0 106.667 725.333H917.333A21.332999999999995 21.332999999999995 0 0 0 938.667 704V490.667H917.333A106.667 106.667 0 0 1 917.333 277.333H938.667zM384 650.667V565.333H448V650.667H384zM384 202.667V117.333H448V202.667H384zM384 352V266.667H448V352H384zM384 501.333V416H448V501.333H384z" />
    <glyph glyph-name="mtdicon-lock-fill"
      unicode="&#xE096;"
      horiz-adv-x="1024" d=" M256 469.333V565.333C256 706.709 370.624 821.333 512 821.333S768 706.709 768 565.333V469.333H832A21.332999999999995 21.332999999999995 0 0 0 853.333 448V-21.184A21.332999999999995 21.332999999999995 0 0 0 832 -42.517H831.957L191.957 -41.344A21.332999999999995 21.332999999999995 0 0 0 170.667 -20.011V448A21.332999999999995 21.332999999999995 0 0 0 192 469.333H256zM341.333 469.333H682.667V565.333A170.667 170.667 0 1 1 341.333 565.333V469.333zM480 341.333V85.333H544V341.333H480z" />
    <glyph glyph-name="mtdicon-file-fill"
      unicode="&#xE097;"
      horiz-adv-x="1024" d=" M192 810.667H661.333L853.333 618.667V-21.333A21.332999999999995 21.332999999999995 0 0 0 832 -42.667H192A21.332999999999995 21.332999999999995 0 0 0 170.667 -21.333V789.333A21.332999999999995 21.332999999999995 0 0 0 192 810.667zM320 597.333V533.333H533.333V597.333H320zM320 426.667V362.667H704V426.667H320zM320 256V192H704V256H320z" />
    <glyph glyph-name="mtdicon-file-send-fill"
      unicode="&#xE098;"
      horiz-adv-x="1024" d=" M128 789.333H411.307A32 32 0 0 0 436.267 777.323L512 682.667H896A21.332999999999995 21.332999999999995 0 0 0 917.333 661.333V64A21.332999999999995 21.332999999999995 0 0 0 896 42.667H128A21.332999999999995 21.332999999999995 0 0 0 106.667 64V768A21.332999999999995 21.332999999999995 0 0 0 128 789.333zM544 352H618.667L512 533.333L405.333 352H480V192H544V352z" />
    <glyph glyph-name="mtdicon-file-export-fill"
      unicode="&#xE099;"
      horiz-adv-x="1024" d=" M192 810.667H661.333L853.333 618.667V-21.333A21.332999999999995 21.332999999999995 0 0 0 832 -42.667H192A21.332999999999995 21.332999999999995 0 0 0 170.667 -21.333V789.333A21.332999999999995 21.332999999999995 0 0 0 192 810.667zM469.333 416V512L256 384L469.333 256V352H725.333V416H469.333z" />
    <glyph glyph-name="mtdicon-database-fill"
      unicode="&#xE09A;"
      horiz-adv-x="1024" d=" M896 298.667C896 216.192 724.075 149.333 512 149.333S128 216.192 128 298.667V352.512C206.827 290.432 350.336 256 512 256S817.173 290.453 896 352.512V298.667zM896 181.845V128C896 37.547 722.987 -21.333 512 -21.333S128 37.547 128 128V181.845C206.827 119.765 350.336 85.333 512 85.333S817.173 119.787 896 181.845zM896 469.333C896 386.86 724.075 320 512 320S128 386.859 128 469.333V523.18C206.827 461.1 350.336 426.668 512 426.668S817.173 461.121 896 523.18V469.334zM896 640C896 557.525 724.075 490.667 512 490.667S128 557.525 128 640C128 730.453 301.013 789.333 512 789.333S896 730.453 896 640z" />
    <glyph glyph-name="mtdicon-error"
      unicode="&#xE09B;"
      horiz-adv-x="1024" d=" M512 -42.667C276.352 -42.667 85.333 148.352 85.333 384S276.352 810.667 512 810.667S938.667 619.648 938.667 384S747.648 -42.667 512 -42.667zM512 21.333C712.299 21.333 874.667 183.701 874.667 384S712.299 746.667 512 746.667S149.333 584.299 149.333 384S311.701 21.333 512 21.333zM575.36 380.971L696.043 260.288L635.712 199.958L515.029 320.618L394.347 199.958L334.016 260.288L454.699 380.971L334.016 501.653L394.346 561.984L515.03 441.301L635.713 561.984L696.043 501.654L575.383 380.971z" />
    <glyph glyph-name="mtdicon-fabulous-fill"
      unicode="&#xE09C;"
      horiz-adv-x="1024" d=" M128 469.333H213.333V21.333H128V469.333zM597.333 490.667H874.667A21.332999999999995 21.332999999999995 0 0 0 896 469.333V311.253A32 32 0 0 0 891.541 294.976L739.136 37.056A32 32 0 0 0 711.595 21.333H298.667A21.332999999999995 21.332999999999995 0 0 0 277.333 42.667V456.49A32 32 0 0 0 281.557 472.383L466.987 796.948C471.893 805.418 480.875 810.666 490.667 810.666A106.667 106.667 0 0 0 597.333 704V490.667z" />
    <glyph glyph-name="mtdicon-drill-down-fill"
      unicode="&#xE09D;"
      horiz-adv-x="1024" d=" M480 542.507C401.045 535.019 341.333 500.331 341.333 458.667C341.333 411.52 417.749 373.333 512 373.333S682.667 411.52 682.667 458.667C682.667 500.331 622.955 535.019 544 542.507V437.333H480V542.507zM480 685.589V810.667H544V685.589L922.581 467.904A10.667 10.667 0 0 0 922.581 449.429L544 231.744V128H618.667L512 -53.333L405.333 128H480V231.744L101.419 449.429A10.667 10.667 0 0 0 101.419 467.904L480 685.589z" />
    <glyph glyph-name="mtdicon-customer"
      unicode="&#xE09E;"
      horiz-adv-x="1024" d=" M128 288V405.333C128 617.408 299.925 789.333 512 789.333S896 617.408 896 405.333V277.333C896 112.384 762.283 -21.333 597.333 -21.333V42.667C697.387 42.667 782.784 105.259 816.555 193.429A96.619 96.619 0 0 0 800 192H725.333A21.332999999999995 21.332999999999995 0 0 0 704 213.333V469.333A21.332999999999995 21.332999999999995 0 0 0 725.333 490.667H798.293C761.6 614.037 647.296 704 512 704S262.4 614.037 225.707 490.667H298.667A21.332999999999995 21.332999999999995 0 0 0 320 469.333V213.333A21.332999999999995 21.332999999999995 0 0 0 298.667 192H224A96 96 0 0 0 128 288zM588.779 42.667H597.333V-21.333H588.779A64 64 0 1 0 588.779 42.667z" />
    <glyph glyph-name="mtdicon-checkbox-checked"
      unicode="&#xE09F;"
      horiz-adv-x="1024" d=" M149.333 768H874.667A21.332999999999995 21.332999999999995 0 0 0 896 746.667V21.333A21.332999999999995 21.332999999999995 0 0 0 874.667 0H149.333A21.332999999999995 21.332999999999995 0 0 0 128 21.333V746.667A21.332999999999995 21.332999999999995 0 0 0 149.333 768zM450.347 326.784L329.813 447.274L284.544 402.005L435.797 250.837A21.332999999999995 21.332999999999995 0 0 1 465.429 250.347L740.416 507.115L695.168 552.363L450.347 326.784z" />
    <glyph glyph-name="mtdicon-cloud-fill"
      unicode="&#xE0A0;"
      horiz-adv-x="1024" d=" M746.667 42.667H277.333V43.733C169.536 54.4 85.333 145.365 85.333 256C85.333 359.21 158.635 445.312 256.043 465.067A261.12 261.12 0 0 0 256 469.333C256 610.709 370.624 725.333 512 725.333S768 610.709 768 469.333C768 467.904 768 466.496 767.957 465.067C865.365 445.312 938.667 359.21 938.667 256C938.667 145.387 854.464 54.421 746.667 43.733V42.667z" />
    <glyph glyph-name="mtdicon-contacts-fill"
      unicode="&#xE0A1;"
      horiz-adv-x="1024" d=" M448 426.667A170.667 170.667 0 1 0 448 768A170.667 170.667 0 0 0 448 426.667zM661.333 318.933V0H85.333V106.667C85.333 224.49 180.843 320 298.667 320H640C647.19 320 654.315 319.637 661.333 318.933zM725.333 320H938.667V256H725.333V320zM725.333 192H938.667V128H725.333V192zM725.333 64H938.667V0H725.333V64z" />
    <glyph glyph-name="mtdicon-camera-fill"
      unicode="&#xE0A2;"
      horiz-adv-x="1024" d=" M294.528 682.667L357.547 779.627A21.332999999999995 21.332999999999995 0 0 0 375.424 789.333H648.576A21.332999999999995 21.332999999999995 0 0 0 666.453 779.627L729.472 682.667H917.333A21.332999999999995 21.332999999999995 0 0 0 938.667 661.333V42.667A21.332999999999995 21.332999999999995 0 0 0 917.333 21.333H106.667A21.332999999999995 21.332999999999995 0 0 0 85.333 42.667V661.333A21.332999999999995 21.332999999999995 0 0 0 106.667 682.667H294.528zM512 234.667A149.333 149.333 0 1 0 512 533.333A149.333 149.333 0 0 0 512 234.667zM512 170.667C629.824 170.667 725.333 266.176 725.333 384S629.824 597.333 512 597.333S298.667 501.824 298.667 384S394.176 170.667 512 170.667z" />
    <glyph glyph-name="mtdicon-avatar-group-fill"
      unicode="&#xE0A3;"
      horiz-adv-x="1024" d=" M384 405.333A149.333 149.333 0 1 0 384 704A149.333 149.333 0 0 0 384 405.333zM245.333 341.333H501.333C589.696 341.333 661.333 243.584 661.333 149.333V64H85.333V149.333C85.333 243.584 156.971 341.333 245.333 341.333zM669.952 298.667H802.368C877.653 298.667 938.667 213.653 938.667 135.104V64H725.333V141.035C725.333 197.845 704.427 254.421 669.952 298.667zM704 341.333A128 128 0 1 0 704 597.333A128 128 0 0 0 704 341.333z" />
    <glyph glyph-name="mtdicon-minus"
      unicode="&#xE0A4;"
      horiz-adv-x="1024" d=" M896 416V352H128V416z" />
    <glyph glyph-name="mtdicon-piechart"
      unicode="&#xE0A5;"
      horiz-adv-x="1024" d=" M512 810.667V384H938.667C938.667 148.352 747.648 -42.667 512 -42.667S85.333 148.352 85.333 384S276.352 810.667 512 810.667zM576 805.888C760.405 778.155 906.155 632.405 933.888 448H576V805.888z" />
    <glyph glyph-name="mtdicon-warning-circle"
      unicode="&#xE0A6;"
      horiz-adv-x="1024" d=" M512 -42.667C276.352 -42.667 85.333 148.352 85.333 384S276.352 810.667 512 810.667S938.667 619.648 938.667 384S747.648 -42.667 512 -42.667zM469.333 234.667V149.333H554.667V234.667H469.333zM469.333 618.667V298.667H554.667V618.667H469.333z" />
    <glyph glyph-name="mtdicon-file-add-o"
      unicode="&#xE0A7;"
      horiz-adv-x="1024" d=" M192 64H832V704H192V64zM149.333 768H874.667A21.332999999999995 21.332999999999995 0 0 0 896 746.667V21.333A21.332999999999995 21.332999999999995 0 0 0 874.667 0H149.333A21.332999999999995 21.332999999999995 0 0 0 128 21.333V746.667A21.332999999999995 21.332999999999995 0 0 0 149.333 768zM544 416H682.667V352H544V213.333H480V352H341.333V416H480V554.667H544V416z" />
    <glyph glyph-name="mtdicon-areachart-o"
      unicode="&#xE0A8;"
      horiz-adv-x="1024" d=" M192 64H896V0H128V768H192V64zM619.69 321.984L489.13 452.544L310.912 274.325L265.685 319.573L489.152 543.061L617.642 414.571L824.107 640.277L871.339 597.077L619.69 321.984z" />
    <glyph glyph-name="mtdicon-piechart-o"
      unicode="&#xE0A9;"
      horiz-adv-x="1024" d=" M512 384H938.667C938.667 148.352 747.648 -42.667 512 -42.667S85.333 148.352 85.333 384S276.352 810.667 512 810.667V384zM869.035 320H448V741.035C278.23 710.827 149.333 562.475 149.333 384C149.333 183.701 311.701 21.333 512 21.333C690.453 21.333 838.827 150.229 869.035 320zM576 805.888C760.405 778.155 906.155 632.405 933.888 448H869.035C842.517 596.992 724.992 714.517 576 741.035V805.888z" />
    <glyph glyph-name="mtdicon-question-mark"
      unicode="&#xE0AA;"
      horiz-adv-x="1024" d=" M544 246.72V202.667H480V273.237L610.048 403.285A138.667 138.667 0 1 1 373.333 501.269L309.333 501.248A202.667 202.667 0 1 0 655.317 358.038L544 246.697zM480.683 137.28H544.683V73.28H480.683V137.28z" />
    <glyph glyph-name="mtdicon-calendar"
      unicode="&#xE0AB;"
      horiz-adv-x="1024" d=" M896 640H128V746.667A21.332999999999995 21.332999999999995 0 0 0 149.333 768H874.667A21.332999999999995 21.332999999999995 0 0 0 896 746.667V640zM896 576V21.333A21.332999999999995 21.332999999999995 0 0 0 874.667 0H149.333A21.332999999999995 21.332999999999995 0 0 0 128 21.333V576H896zM288 469.333V405.333H352V469.333H288zM480 469.333V405.333H544V469.333H480zM672 469.333V405.333H736V469.333H672zM288 320V256H352V320H288zM480 320V256H544V320H480zM672 320V256H736V320H672zM288 170.667V106.667H352V170.667H288zM480 170.667V106.667H544V170.667H480z" />
    <glyph glyph-name="mtdicon-file-add"
      unicode="&#xE0AC;"
      horiz-adv-x="1024" d=" M149.333 768H874.667A21.332999999999995 21.332999999999995 0 0 0 896 746.667V21.333A21.332999999999995 21.332999999999995 0 0 0 874.667 0H149.333A21.332999999999995 21.332999999999995 0 0 0 128 21.333V746.667A21.332999999999995 21.332999999999995 0 0 0 149.333 768zM544 416V576H480V416H320V352H480V192H544V352H704V416H544z" />
    <glyph glyph-name="mtdicon-barschart"
      unicode="&#xE0AD;"
      horiz-adv-x="1024" d=" M896 64V0H128V64H896zM160 448H352V128H160V448zM416 768H608V128H416V768zM672 597.333H864V128H672V597.333z" />
    <glyph glyph-name="mtdicon-barschart-o"
      unicode="&#xE0AE;"
      horiz-adv-x="1024" d=" M896 64V0H128V64H896zM160 448H352V128H160V448zM224 384V192H288V384H224zM416 768H608V128H416V768zM480 704V192H544V704H480zM672 597.333H864V128H672V597.333zM736 533.333V192H800V533.333H736z" />
    <glyph glyph-name="mtdicon-calendar-o"
      unicode="&#xE0AF;"
      horiz-adv-x="1024" d=" M832 618.667V704H192V618.667H832zM832 554.667H192V64H832V554.667zM149.333 768H874.667A21.332999999999995 21.332999999999995 0 0 0 896 746.667V21.333A21.332999999999995 21.332999999999995 0 0 0 874.667 0H149.333A21.332999999999995 21.332999999999995 0 0 0 128 21.333V746.667A21.332999999999995 21.332999999999995 0 0 0 149.333 768zM309.333 469.333H373.333V405.333H309.333V469.333zM480 469.333H544V405.333H480V469.333zM650.667 469.333H714.667V405.333H650.667V469.333zM309.333 341.333H373.333V277.333H309.333V341.333zM480 341.333H544V277.333H480V341.333zM650.667 341.333H714.667V277.333H650.667V341.333zM309.333 213.333H373.333V149.333H309.333V213.333zM480 213.333H544V149.333H480V213.333z" />
    <glyph glyph-name="mtdicon-areachart"
      unicode="&#xE0B0;"
      horiz-adv-x="1024" d=" M256 341.333L426.667 512L554.667 405.333L896 725.333V128H256V341.333zM192 64H896V0H128V768H192V64z" />
    <glyph glyph-name="mtdicon-refresh"
      unicode="&#xE0B1;"
      horiz-adv-x="1024" d=" M896 0H682.667V64H832V213.333H896V0zM192 64H341.333V0H128V213.333H192V64zM682.667 768H896V554.667H832V704H682.667V768zM128 768H341.333V704H192V554.667H128V768zM128 416H896V352H128V416z" />
    <glyph glyph-name="mtdicon-question-circle-o"
      unicode="&#xE0B2;"
      horiz-adv-x="1024" d=" M512 -42.667C276.352 -42.667 85.333 148.352 85.333 384S276.352 810.667 512 810.667S938.667 619.648 938.667 384S747.648 -42.667 512 -42.667zM512 21.333C712.299 21.333 874.667 183.701 874.667 384S712.299 746.667 512 746.667S149.333 584.299 149.333 384S311.701 21.333 512 21.333zM469.333 213.333H554.667V128H469.333V213.333zM469.333 357.483L557.248 445.419A64 64 0 1 1 448 490.667H362.667A149.333 149.333 0 1 0 617.6 385.067L554.667 322.133V277.333H469.333V357.483z" />
    <glyph glyph-name="mtdicon-star"
      unicode="&#xE0B3;"
      horiz-adv-x="1024" d=" M512 120.533L245.483 -42.24A10.667 10.667 0 0 0 229.547 -30.677L302.016 273.109L64.832 476.267A10.667 10.667 0 0 0 70.912 494.997L382.208 519.957L502.144 808.32A10.667 10.667 0 0 0 521.856 808.32L641.792 519.957L953.088 494.997A10.667 10.667 0 0 0 959.168 476.267L721.984 273.109L794.454 -30.677A10.667 10.667 0 0 0 778.517 -42.261L512 120.533z" />
    <glyph glyph-name="mtdicon-theme"
      unicode="&#xE0B4;"
      horiz-adv-x="1024" d=" M170.667 746.667H448A21.332999999999995 21.332999999999995 0 0 0 469.333 725.333V448A21.332999999999995 21.332999999999995 0 0 0 448 426.667H170.667A21.332999999999995 21.332999999999995 0 0 0 149.333 448V725.333A21.332999999999995 21.332999999999995 0 0 0 170.667 746.667zM576 746.667H853.333A21.332999999999995 21.332999999999995 0 0 0 874.667 725.333V448A21.332999999999995 21.332999999999995 0 0 0 853.333 426.667H576A21.332999999999995 21.332999999999995 0 0 0 554.667 448V725.333A21.332999999999995 21.332999999999995 0 0 0 576 746.667zM170.667 341.333H448A21.332999999999995 21.332999999999995 0 0 0 469.333 320V42.667A21.332999999999995 21.332999999999995 0 0 0 448 21.333H170.667A21.332999999999995 21.332999999999995 0 0 0 149.333 42.667V320A21.332999999999995 21.332999999999995 0 0 0 170.667 341.333zM576 341.333H853.333A21.332999999999995 21.332999999999995 0 0 0 874.667 320V42.667A21.332999999999995 21.332999999999995 0 0 0 853.333 21.333H576A21.332999999999995 21.332999999999995 0 0 0 554.667 42.667V320A21.332999999999995 21.332999999999995 0 0 0 576 341.333z" />
    <glyph glyph-name="mtdicon-time"
      unicode="&#xE0B5;"
      horiz-adv-x="1024" d=" M512 -42.667C276.352 -42.667 85.333 148.352 85.333 384S276.352 810.667 512 810.667S938.667 619.648 938.667 384S747.648 -42.667 512 -42.667zM525.781 404.8V626.219H461.781V391.552C461.781 383.062 465.152 374.912 471.168 368.917L635.584 204.501L680.832 249.749L525.782 404.8z" />
    <glyph glyph-name="mtdicon-smile"
      unicode="&#xE0B6;"
      horiz-adv-x="1024" d=" M512 -42.667C276.352 -42.667 85.333 148.352 85.333 384S276.352 810.667 512 810.667S938.667 619.648 938.667 384S747.648 -42.667 512 -42.667zM341.333 533.333A64 64 0 1 1 341.333 405.333A64 64 0 0 1 341.333 533.333zM682.667 533.333A64 64 0 1 1 682.667 405.333A64 64 0 0 1 682.667 533.333zM683.776 248.704L626.517 277.334A128 128 0 0 0 512 206.591A128 128 0 0 0 397.483 277.332L340.224 248.703A192 192 0 0 1 512 142.592A192 192 0 0 1 683.776 248.704z" />
    <glyph glyph-name="mtdicon-calculator"
      unicode="&#xE0B7;"
      horiz-adv-x="1024" d=" M192 810.667H832A21.332999999999995 21.332999999999995 0 0 0 853.333 789.333V-21.333A21.332999999999995 21.332999999999995 0 0 0 832 -42.667H192A21.332999999999995 21.332999999999995 0 0 0 170.667 -21.333V789.333A21.332999999999995 21.332999999999995 0 0 0 192 810.667zM320 661.333V597.333H704V661.333H320zM320 469.333V405.333H384V469.333H320zM480 469.333V405.333H544V469.333H480zM640 469.333V405.333H704V469.333H640zM320 320V256H384V320H320zM480 320V256H544V320H480zM640 320V256H704V320H640zM320 170.667V106.667H544V170.667H320zM640 170.667V106.667H704V170.667H640z" />
    <glyph glyph-name="mtdicon-question-circle"
      unicode="&#xE0B8;"
      horiz-adv-x="1024" d=" M512 -42.667C276.352 -42.667 85.333 148.352 85.333 384S276.352 810.667 512 810.667S938.667 619.648 938.667 384S747.648 -42.667 512 -42.667zM469.333 357.483V277.333H554.667V322.133L617.6 385.067A149.333 149.333 0 1 1 362.667 490.667H448A64 64 0 1 0 557.248 445.419L469.333 357.483zM469.333 213.333V128H554.667V213.333H469.333z" />
    <glyph glyph-name="mtdicon-save"
      unicode="&#xE0B9;"
      horiz-adv-x="1024" d=" M256 768V405.333A21.332999999999995 21.332999999999995 0 0 1 277.333 384H746.667A21.332999999999995 21.332999999999995 0 0 1 768 405.333V768H874.667A21.332999999999995 21.332999999999995 0 0 0 896 746.667V21.333A21.332999999999995 21.332999999999995 0 0 0 874.667 0H149.333A21.332999999999995 21.332999999999995 0 0 0 128 21.333V746.667A21.332999999999995 21.332999999999995 0 0 0 149.333 768H256zM320 768H704V448H320V768zM576 640V512H640V640H576z" />
    <glyph glyph-name="mtdicon-cart"
      unicode="&#xE0BA;"
      horiz-adv-x="1024" d=" M114.005 725.333H1.28V789.333H138.667A32 32 0 0 0 169.6 765.483L211.05 607.979L890.645 607.445A10.667 10.667 0 0 0 900.885 593.856L775.531 154.155A21.332999999999995 21.332999999999995 0 0 0 755.008 138.667H283.158A21.332999999999995 21.332999999999995 0 0 0 262.507 154.624L114.005 725.334zM661.333 341.333H384V277.333H661.333V341.333zM362.667 85.333A64 64 0 1 0 362.667 -42.667A64 64 0 0 0 362.667 85.333zM704 85.333A64 64 0 1 0 704 -42.667A64 64 0 0 0 704 85.333z" />
    <glyph glyph-name="mtdicon-success-circle"
      unicode="&#xE0BB;"
      horiz-adv-x="1024" d=" M813.696 82.304C647.083 -84.309 376.917 -84.309 210.304 82.304C43.691 248.917 43.691 519.083 210.304 685.696C376.917 852.309 647.083 852.309 813.696 685.696C980.309 519.083 980.309 248.917 813.696 82.304zM458.346 328.384L337.665 449.067L277.335 388.736L458.348 207.723L744.96 494.336L684.63 554.666L458.347 328.384z" />
    <glyph glyph-name="mtdicon-filter"
      unicode="&#xE0BC;"
      horiz-adv-x="1024" d=" M111.083 725.333H912.917A10.667 10.667 0 0 0 920.448 707.115L618.667 405.333V-22.549A10.667 10.667 0 0 0 602.56 -31.723L421.013 76.032A32 32 0 0 0 405.333 103.552V405.333L103.552 707.115A10.667 10.667 0 0 0 111.082 725.333z" />
    <glyph glyph-name="mtdicon-home"
      unicode="&#xE0BD;"
      horiz-adv-x="1024" d=" M149.333 469.333L512 832L874.667 469.333V42.667A21.332999999999995 21.332999999999995 0 0 0 853.333 21.333H170.667A21.332999999999995 21.332999999999995 0 0 0 149.333 42.667V469.333zM480 448V149.333H544V448H480z" />
    <glyph glyph-name="mtdicon-share"
      unicode="&#xE0BE;"
      horiz-adv-x="1024" d=" M408.81 492.821L579.947 586.965A128 128 0 1 0 610.816 530.901L439.68 436.78C445.077 420.14 448 402.433 448 384.001C448 365.591 445.077 347.841 439.68 331.222L610.837 237.1A128 128 0 1 0 579.968 181.036L408.789 275.2A170.667 170.667 0 1 0 408.789 492.864z" />
    <glyph glyph-name="mtdicon-location"
      unicode="&#xE0BF;"
      horiz-adv-x="1024" d=" M760.896 186.603L527.083 -47.211A21.332999999999995 21.332999999999995 0 0 0 496.917 -47.211L263.104 186.603C125.632 324.075 125.632 546.923 263.104 684.395C400.554 821.867 623.424 821.867 760.896 684.395C898.368 546.944 898.368 324.075 760.896 186.603zM512 320A128 128 0 1 1 512 576A128 128 0 0 1 512 320z" />
    <glyph glyph-name="mtdicon-bell"
      unicode="&#xE0C0;"
      horiz-adv-x="1024" d=" M480 744.96V810.667H544V744.96C693.91 729.024 810.667 602.155 810.667 448V221.824L867.349 122.624A10.667 10.667 0 0 0 858.091 106.667H165.909A10.667 10.667 0 0 0 156.651 122.624L213.333 221.824V448C213.333 602.133 330.091 729.003 480 744.96zM469.333 810.667H554.667V725.333H469.333V810.667zM384 -41.301V44.032H640V-41.301H384z" />
    <glyph glyph-name="mtdicon-file-o"
      unicode="&#xE0C1;"
      horiz-adv-x="1024" d=" M234.667 746.667V21.333H789.333V592.15L634.816 746.667H234.666zM192 810.667H661.333L853.333 618.667V-21.333A21.332999999999995 21.332999999999995 0 0 0 832 -42.667H192A21.332999999999995 21.332999999999995 0 0 0 170.667 -21.333V789.333A21.332999999999995 21.332999999999995 0 0 0 192 810.667zM341.333 576H554.667V512H341.333V576zM341.333 426.667H682.667V362.667H341.333V426.667zM341.333 277.333H682.667V213.333H341.333V277.333z" />
    <glyph glyph-name="mtdicon-triangle-right"
      unicode="&#xE0C2;"
      horiz-adv-x="1024" d=" M667.413 393.173A10.667 10.667 0 0 0 667.413 374.72L368.64 201.259A10.667 10.667 0 0 0 352.64 210.475V557.44A10.667 10.667 0 0 0 368.64 566.677L667.413 393.195z" />
    <glyph glyph-name="mtdicon-triangle-up"
      unicode="&#xE0C3;"
      horiz-adv-x="1024" d=" M503.467 538.688A10.667 10.667 0 0 0 521.899 538.688L695.36 239.936A10.667 10.667 0 0 0 686.144 223.915H339.2A10.667 10.667 0 0 0 329.984 239.915L503.445 538.688z" />
    </font>
</defs>
</svg>
